<svg id="Group_40" data-name="Group 40" xmlns="http://www.w3.org/2000/svg" viewBox="0 0 267.423 430.696">
  <path id="Path_129" data-name="Path 129"
    d="M273.24,455.518H32.807a13.509,13.509,0,0,1-13.5-13.493V38.317a13.513,13.513,0,0,1,13.5-13.495H273.24a13.513,13.513,0,0,1,13.493,13.495V442.026a13.51,13.51,0,0,1-13.493,13.493M32.807,29.04a9.288,9.288,0,0,0-9.282,9.277V442.026a9.287,9.287,0,0,0,9.282,9.275H273.24a9.286,9.286,0,0,0,9.275-9.275V38.317a9.286,9.286,0,0,0-9.275-9.277Z"
    transform="translate(-19.31 -24.822)" fill="#fff" />
  <path id="Path_130" data-name="Path 130"
    d="M54.592,56.8a57.426,57.426,0,0,0-1.04,32.228,57.02,57.02,0,0,1,9.572-1.363A236.191,236.191,0,0,1,64.2,55.691,78.63,78.63,0,0,0,54.592,56.8"
    transform="translate(24.709 17.086)" fill="#fff" />
  <path id="Path_131" data-name="Path 131"
    d="M52.906,71.95A57.371,57.371,0,0,0,63.428,91.016c-.863-6.663-1.452-13.471-1.763-20.3a53.135,53.135,0,0,0-8.758,1.235"
    transform="translate(26.3 37.482)" fill="#fff" />
  <path id="Path_132" data-name="Path 132"
    d="M87.084,76.61a81.553,81.553,0,0,1,15.949,19.269,81.572,81.572,0,0,0,14.848-21.527,84.1,84.1,0,0,0-13.627-17.9Z"
    transform="translate(72.7 18.123)" fill="#fff" />
  <path id="Path_133" data-name="Path 133"
    d="M72.724,71.67a104.79,104.79,0,0,1,10.685,4.437L103.842,55.7q-1.171-.707-2.358-1.391A115.132,115.132,0,0,0,82.23,45.515c-2.869,7.561-6.068,16.35-9.506,26.155"
    transform="translate(53.205 3.271)" fill="#fff" />
  <path id="Path_134" data-name="Path 134"
    d="M63.518,100.5a57.7,57.7,0,0,0,7.417,3.746c5.229-5.281,10.47-11.029,15.6-17.1L72.26,72.885c-3.152,9.683-6.087,18.962-8.742,27.617"
    transform="translate(40.707 40.428)" fill="#fff" />
  <path id="Path_135" data-name="Path 135"
    d="M72.353,58.008l5.17,7.523,3.843-3.838c-2.959-1.382-5.979-2.615-9.013-3.685" transform="translate(52.701 20.231)"
    fill="#fff" />
  <path id="Path_136" data-name="Path 136"
    d="M77.37,90.407a56.7,56.7,0,0,1,12.314,14.466A144.664,144.664,0,0,0,113.84,85.289a76.6,76.6,0,0,0-15.751-19.2Z"
    transform="translate(59.512 31.205)" fill="#fff" />
  <path id="Path_137" data-name="Path 137"
    d="M65.191,46.949A56.592,56.592,0,0,0,53.507,65.044a84.2,84.2,0,0,1,8.667-.875,158.927,158.927,0,0,1,3.018-17.22"
    transform="translate(27.116 5.218)" fill="#fff" />
  <path id="Path_138" data-name="Path 138"
    d="M94.542,84.081A63.4,63.4,0,0,1,97.8,91.512a56.943,56.943,0,0,0,9.532-24.184A92.2,92.2,0,0,1,94.542,84.081"
    transform="translate(82.825 32.884)" fill="#fff" />
  <path id="Path_139" data-name="Path 139"
    d="M75.321,92.893a57.075,57.075,0,0,0,18.1-2.414,41.157,41.157,0,0,0-2.428-6.033,167.017,167.017,0,0,1-15.669,8.447"
    transform="translate(56.731 56.124)" fill="#fff" />
  <path id="Path_140" data-name="Path 140"
    d="M83.207,94.769a43.874,43.874,0,0,1,2.749,6.8,56.824,56.824,0,0,0,24.877-17.981,60.473,60.473,0,0,0-3.336-8.091,145.775,145.775,0,0,1-24.29,19.276"
    transform="translate(67.437 43.969)" fill="#fff" />
  <path id="Path_141" data-name="Path 141"
    d="M95.228,59.192a88.123,88.123,0,0,1,11.538,14.322,57.543,57.543,0,0,0-5.991-20.832Z"
    transform="translate(83.756 13.002)" fill="#fff" />
  <path id="Path_142" data-name="Path 142"
    d="M67.852,99.036a57.383,57.383,0,0,0,11.878,2.822A168.024,168.024,0,0,0,99.708,91.214a54.763,54.763,0,0,0-11.647-13.7l-4.942,5.8S72.834,94.1,67.852,99.036"
    transform="translate(46.591 46.715)" fill="#fff" />
  <path id="Path_143" data-name="Path 143"
    d="M65.688,44.873a110.713,110.713,0,0,1,23.89,4.769c.059-.16.118-.318.174-.476,1.384-3.572,2.674-6.788,3.852-9.579-1.214-.075-2.424-.12-3.624-.12a57.441,57.441,0,0,0-24.293,5.406"
    transform="translate(43.653 -4.94)" fill="#fff" />
  <path id="Path_144" data-name="Path 144"
    d="M87.836,73.821c.269.083.538.163.806.248,3.371-9.815,6.535-18.618,9.4-26.2A107.891,107.891,0,0,0,70,42.958a56.323,56.323,0,0,0-7.12,5.116A149.168,149.168,0,0,0,58.609,69.49a94.272,94.272,0,0,1,10.225.476l7.65-12.66Z"
    transform="translate(34.042 -0.201)" fill="#fff" />
  <path id="Path_145" data-name="Path 145"
    d="M59.954,94.739l.111.12a57.155,57.155,0,0,0,8.664,7.113c2.652-9.077,5.55-18.6,8.624-28.35a64.94,64.94,0,0,0-19.441-2.945c.3,8.174.985,16.265,2.042,24.062"
    transform="translate(33.096 37.43)" fill="#fff" />
  <path id="Path_146" data-name="Path 146"
    d="M77.239,50.475a116.947,116.947,0,0,1,19.6,8.957c1.068.618,2.129,1.252,3.173,1.9l9.77-9.756A56.71,56.71,0,0,0,81.57,39.67c-1.221,2.89-2.622,6.389-4.18,10.418Z"
    transform="translate(59.335 -4.664)" fill="#fff" />
  <path id="Path_147" data-name="Path 147"
    d="M58.3,87.636a67.053,67.053,0,0,1,14.655,1.65l-15.016-15q-.195,6.578-.038,13.353l.4,0m.943-31.988c-.613,5.432-1.023,11.029-1.24,16.755L67.94,55.959c-2.919-.245-5.835-.347-8.692-.311"
    transform="translate(32.994 17.018)" fill="#fff" />
  <path id="Path_148" data-name="Path 148"
    d="M170.177,70.844a63.578,63.578,0,1,1-13.108-15.572l3.869-3.833A68.971,68.971,0,1,0,173.876,66.5Z"
    transform="translate(17.922 -11.732)" fill="#fff" />
  <path id="Path_149" data-name="Path 149"
    d="M60.889,98.172l31.316,31.29L165.628,42.6l-5.738-5.745L92.205,103.821,73.722,76.933Z"
    transform="translate(37.138 -8.485)" fill="#fff" />
  <path id="Path_150" data-name="Path 150"
    d="M46.735,102.254h6.978v25.064H46.735Zm10.623,0h6.488l10.336,13.254V102.254h6.835v25.064h-6.1L64.191,113.571v13.747H57.358Zm34.815,6.09H84.655v-6.09h21.982v6.09H99.119v18.974H92.173Zm18.106-6.09h21.3l-1.184,5.906H117.112v3.8h10.843v5.481H117.112V121.4h13.464l1.188,5.913H110.279Zm74.562,12.46a13.068,13.068,0,1,1-13.066-13.087,13.078,13.078,0,0,1,13.066,13.087m-13.066-6.644a6.645,6.645,0,1,0,6.639,6.644,6.643,6.643,0,0,0-6.639-6.644M157.29,122.129a13.086,13.086,0,1,1-.189-15.1l-5.1,3.942a6.641,6.641,0,1,0,.047,7.424Z"
    transform="translate(17.922 79.449)" fill="#fff" />
  <g id="Group_38" data-name="Group 38" transform="translate(4.218 229.76)">
    <path id="Path_151" data-name="Path 151"
      d="M58.994,151.2a4.936,4.936,0,0,0,0-3.739,3.159,3.159,0,0,0-.978-1.186,3.908,3.908,0,0,0-1.393-.629,6.871,6.871,0,0,0-1.61-.189h-1.6v7.794h1.525a6.9,6.9,0,0,0,1.664-.2,3.9,3.9,0,0,0,1.412-.648A3.224,3.224,0,0,0,58.994,151.2Z"
      transform="translate(22.772 -90.808)" fill="#fff" />
    <path id="Path_152" data-name="Path 152"
      d="M72.684,174.05a3.383,3.383,0,0,0-1.146-.806,3.635,3.635,0,0,0-1.481-.3,3.54,3.54,0,0,0-2.617,1.1,3.5,3.5,0,0,0-.745,1.226A4.766,4.766,0,0,0,66.7,178.4a3.711,3.711,0,0,0,.745,1.245,3.366,3.366,0,0,0,1.139.818,3.814,3.814,0,0,0,2.94,0,3.524,3.524,0,0,0,1.148-.818,3.687,3.687,0,0,0,.752-1.245,4.537,4.537,0,0,0,.269-1.587,4.362,4.362,0,0,0-.269-1.542A3.686,3.686,0,0,0,72.684,174.05Z"
      transform="translate(40.451 -53.487)" fill="#fff" />
    <path id="Path_153" data-name="Path 153"
      d="M64.408,155.248a2.174,2.174,0,0,0-.7-.217,5.177,5.177,0,0,0-.747-.057H61.239v3.1h1.532a5.1,5.1,0,0,0,.813-.064,2.56,2.56,0,0,0,.757-.236,1.366,1.366,0,0,0,.776-1.318,1.333,1.333,0,0,0-.2-.761A1.37,1.37,0,0,0,64.408,155.248Z"
      transform="translate(33.395 -77.886)" fill="#fff" />
    <path id="Path_154" data-name="Path 154" d="M66.094,136.218,64.4,140.793h3.351Z"
      transform="translate(37.688 -103.35)" fill="#fff" />
    <path id="Path_155" data-name="Path 155"
      d="M96.656,155.856a3.907,3.907,0,0,0-1.393-.63,6.87,6.87,0,0,0-1.61-.186h-1.6v7.792h1.525a6.906,6.906,0,0,0,1.664-.2,3.9,3.9,0,0,0,1.412-.648,3.223,3.223,0,0,0,.978-1.2,4.935,4.935,0,0,0,0-3.739A3.159,3.159,0,0,0,96.656,155.856Z"
      transform="translate(75.23 -77.798)" fill="#fff" />
    <path id="Path_156" data-name="Path 156"
      d="M83.109,174.315a2.889,2.889,0,0,0-.566-1.037,1.205,1.205,0,0,0-.96-.422,1.23,1.23,0,0,0-.967.422,2.88,2.88,0,0,0-.582,1.037,6.168,6.168,0,0,0-.281,1.334c-.047.481-.071.917-.071,1.311s.024.851.071,1.337a6.165,6.165,0,0,0,.281,1.344,2.891,2.891,0,0,0,.582,1.04,1.237,1.237,0,0,0,.967.422,1.213,1.213,0,0,0,.96-.422,2.9,2.9,0,0,0,.566-1.04,6.78,6.78,0,0,0,.269-1.344q.071-.729.071-1.337c0-.394-.024-.83-.071-1.311A6.788,6.788,0,0,0,83.109,174.315Z"
      transform="translate(58.435 -53.611)" fill="#fff" />
    <path id="Path_157" data-name="Path 157"
      d="M76.735,172.826a1.95,1.95,0,0,0-1.469.563,2.028,2.028,0,0,0-.549,1.478,1.972,1.972,0,0,0,.54,1.424,1.9,1.9,0,0,0,1.443.568,1.976,1.976,0,0,0,1.457-.559,1.956,1.956,0,0,0,.559-1.452,2.08,2.08,0,0,0-.53-1.424A1.84,1.84,0,0,0,76.735,172.826Z"
      transform="translate(51.693 -53.652)" fill="#fff" />
    <path id="Path_158" data-name="Path 158" d="M86.5,159.957h3.351l-1.658-4.575Z" transform="translate(67.685 -77.333)"
      fill="#fff" />
    <path id="Path_159" data-name="Path 159"
      d="M88.021,174.315a2.889,2.889,0,0,0-.566-1.037,1.205,1.205,0,0,0-.96-.422,1.23,1.23,0,0,0-.967.422,2.88,2.88,0,0,0-.582,1.037,6.166,6.166,0,0,0-.281,1.334c-.047.481-.071.917-.071,1.311s.024.851.071,1.337a6.164,6.164,0,0,0,.281,1.344,2.891,2.891,0,0,0,.582,1.04,1.237,1.237,0,0,0,.967.422,1.213,1.213,0,0,0,.96-.422,2.9,2.9,0,0,0,.566-1.04,6.462,6.462,0,0,0,.269-1.344q.071-.729.071-1.337c0-.394-.024-.83-.071-1.311A6.465,6.465,0,0,0,88.021,174.315Z"
      transform="translate(65.103 -53.611)" fill="#fff" />
    <path id="Path_160" data-name="Path 160" d="M72.163,150.375h3.351L73.856,145.8Z"
      transform="translate(48.226 -90.342)" fill="#fff" />
    <path id="Path_161" data-name="Path 161"
      d="M100.88,146.275a3.908,3.908,0,0,0-1.393-.629,6.866,6.866,0,0,0-1.608-.189h-1.6v7.794H97.8a6.9,6.9,0,0,0,1.664-.2,3.9,3.9,0,0,0,1.412-.648,3.229,3.229,0,0,0,.981-1.2,4.965,4.965,0,0,0,0-3.739A3.165,3.165,0,0,0,100.88,146.275Z"
      transform="translate(80.964 -90.808)" fill="#fff" />
    <path id="Path_162" data-name="Path 162"
      d="M89.062,152.4a3.229,3.229,0,0,0,.981-1.2,4.965,4.965,0,0,0,0-3.739,3.165,3.165,0,0,0-.981-1.186,3.908,3.908,0,0,0-1.393-.629,6.851,6.851,0,0,0-1.608-.189h-1.6v7.794h1.525a6.891,6.891,0,0,0,1.664-.2A3.879,3.879,0,0,0,89.062,152.4Z"
      transform="translate(64.92 -90.808)" fill="#fff" />
    <path id="Path_163" data-name="Path 163"
      d="M115.121,139.852a4.555,4.555,0,0,0-.283-1.617,3.88,3.88,0,0,0-.78-1.292,3.579,3.579,0,0,0-1.2-.846,3.847,3.847,0,0,0-1.554-.309,3.786,3.786,0,0,0-1.544.309,3.7,3.7,0,0,0-1.2.846,3.661,3.661,0,0,0-.78,1.292,4.979,4.979,0,0,0,.009,3.282,3.946,3.946,0,0,0,.78,1.311,3.581,3.581,0,0,0,1.2.856,3.987,3.987,0,0,0,3.088,0,3.692,3.692,0,0,0,1.2-.856,3.888,3.888,0,0,0,.79-1.311A4.744,4.744,0,0,0,115.121,139.852Z"
      transform="translate(96.195 -103.934)" fill="#fff" />
    <path id="Path_164" data-name="Path 164"
      d="M76.421,142.823a3.229,3.229,0,0,0,.981-1.2,4.965,4.965,0,0,0,0-3.739,3.165,3.165,0,0,0-.981-1.186,3.908,3.908,0,0,0-1.393-.629,6.864,6.864,0,0,0-1.608-.189h-1.6v7.794h1.525a6.906,6.906,0,0,0,1.664-.2A3.937,3.937,0,0,0,76.421,142.823Z"
      transform="translate(47.759 -103.816)" fill="#fff" />
    <path id="Path_165" data-name="Path 165"
      d="M21.1,122.277V267.439H280.086V122.277Zm207.759,25.545h3.124l-2.749,2.711H226.9Zm-25.094,3.765h10.748v2.749h-3.765v10.581h-3.218V154.336h-3.765Zm3.878,29.218a6.545,6.545,0,0,1-.651,3.02,6.075,6.075,0,0,1-1.714,2.091,7.166,7.166,0,0,1-2.4,1.2,9.737,9.737,0,0,1-2.711.387H195.2v-13.33h4.819a11.915,11.915,0,0,1,2.787.33,6.951,6.951,0,0,1,2.447,1.092,5.6,5.6,0,0,1,1.733,2.042A6.883,6.883,0,0,1,207.642,180.8ZM199.7,160.513a1.837,1.837,0,0,0-.538-.483,4.328,4.328,0,0,0-.865-.394q-.52-.177-1.176-.387a10.363,10.363,0,0,1-1.252-.49,4.171,4.171,0,0,1-1.092-.724,3.374,3.374,0,0,1-.773-1.073,3.623,3.623,0,0,1-.292-1.535,3.76,3.76,0,0,1,.453-1.9,3.9,3.9,0,0,1,1.186-1.3,5.116,5.116,0,0,1,1.657-.745,7.565,7.565,0,0,1,1.863-.233,6.908,6.908,0,0,1,2.306.413,5.963,5.963,0,0,1,2.063,1.224l-2.053,2.164a2.93,2.93,0,0,0-1.082-.837,3.046,3.046,0,0,0-1.287-.311,4.087,4.087,0,0,0-.651.057,1.706,1.706,0,0,0-.594.217,1.424,1.424,0,0,0-.441.415,1.1,1.1,0,0,0-.179.648,1.049,1.049,0,0,0,.141.566,1.23,1.23,0,0,0,.413.394,3.728,3.728,0,0,0,.651.311c.25.094.533.191.846.292.453.151.922.316,1.412.5a5.3,5.3,0,0,1,1.337.726,3.761,3.761,0,0,1,1,1.12,3.225,3.225,0,0,1,.4,1.667,4.333,4.333,0,0,1-.424,1.985,3.893,3.893,0,0,1-1.139,1.384,4.881,4.881,0,0,1-1.636.811,6.943,6.943,0,0,1-1.9.262,7.8,7.8,0,0,1-2.768-.5,5.818,5.818,0,0,1-2.221-1.419l2.108-2.145a3.883,3.883,0,0,0,1.29,1,3.453,3.453,0,0,0,1.591.406,3.224,3.224,0,0,0,.7-.073,1.771,1.771,0,0,0,.594-.245,1.234,1.234,0,0,0,.406-.453,1.44,1.44,0,0,0,.151-.677A1.073,1.073,0,0,0,199.7,160.513Zm-5.609,26.995h-3.576l-1.037-2.619h-5.158l-.978,2.619h-3.5l5.59-13.33h3.126Zm-11.373-35.92h8.961V154.3H185.82v2.523h5.536V159.4H185.82v2.768h6.2v2.749h-9.3Zm-14.544,3.746a6.466,6.466,0,0,1,1.535-2.211,6.82,6.82,0,0,1,2.3-1.4,8.079,8.079,0,0,1,2.843-.49,8.735,8.735,0,0,1,2.938.481,6.121,6.121,0,0,1,2.2,1.29l-2.035,2.315a3.488,3.488,0,0,0-1.24-.894,4.241,4.241,0,0,0-1.752-.349,3.879,3.879,0,0,0-1.563.311,3.767,3.767,0,0,0-1.242.865,3.913,3.913,0,0,0-.818,1.32,4.59,4.59,0,0,0-.292,1.664,5.186,5.186,0,0,0,.264,1.7,3.5,3.5,0,0,0,2.061,2.193,4.584,4.584,0,0,0,1.742.311,6.8,6.8,0,0,0,1.073-.085,4,4,0,0,0,.941-.273v-2.431h-2.542v-2.6h5.5v7.059a10.04,10.04,0,0,1-2.287.83,12.052,12.052,0,0,1-2.853.318,8.214,8.214,0,0,1-2.947-.509,6.77,6.77,0,0,1-2.315-1.429,6.545,6.545,0,0,1-1.516-2.211,7.854,7.854,0,0,1,.009-5.771Zm-.837,18.844h4.819a11.95,11.95,0,0,1,2.789.33,6.99,6.99,0,0,1,2.447,1.092,5.612,5.612,0,0,1,1.73,2.042,6.853,6.853,0,0,1,.66,3.164,6.545,6.545,0,0,1-.651,3.02,6.075,6.075,0,0,1-1.714,2.091,7.144,7.144,0,0,1-2.4,1.2,9.737,9.737,0,0,1-2.711.387h-4.97Zm.688,22.732a5.339,5.339,0,0,1,2.211,1.459l-2.183,2.183a2.69,2.69,0,0,0-1.186-.922,3.906,3.906,0,0,0-1.507-.3,3.818,3.818,0,0,0-1.554.311,3.653,3.653,0,0,0-1.214.858,3.922,3.922,0,0,0-.79,1.287,4.547,4.547,0,0,0-.283,1.629,4.677,4.677,0,0,0,.283,1.657,3.869,3.869,0,0,0,.78,1.29,3.53,3.53,0,0,0,1.2.837,3.813,3.813,0,0,0,1.525.3,3.537,3.537,0,0,0,1.676-.377,3.262,3.262,0,0,0,1.148-.978l2.24,2.11a6.341,6.341,0,0,1-2.183,1.608,7.13,7.13,0,0,1-2.994.592,7.805,7.805,0,0,1-2.853-.507,6.591,6.591,0,0,1-3.775-3.671,7.814,7.814,0,0,1,.012-5.762,6.428,6.428,0,0,1,1.532-2.211,6.83,6.83,0,0,1,2.3-1.4,8.215,8.215,0,0,1,5.618.009Zm-3.435-9.4h-3.239v-13.33h3.239ZM152.1,151.587h8.961V154.3h-5.856v2.523h5.536V159.4h-5.536v2.768h6.2v2.749h-9.3Zm-.658,22.591h3.239V184.7h5.158v2.806h-8.4Zm-13.915-22.591h4.819a11.914,11.914,0,0,1,2.787.33,6.983,6.983,0,0,1,2.45,1.092,5.613,5.613,0,0,1,1.73,2.042,6.876,6.876,0,0,1,.66,3.164,6.545,6.545,0,0,1-.651,3.02,6.074,6.074,0,0,1-1.714,2.091,7.164,7.164,0,0,1-2.4,1.2,9.737,9.737,0,0,1-2.711.387h-4.97Zm-1.089,24.191-2.183,2.183a2.7,2.7,0,0,0-1.188-.922,3.885,3.885,0,0,0-1.5-.3,3.81,3.81,0,0,0-1.554.311,3.629,3.629,0,0,0-1.214.858,3.888,3.888,0,0,0-.792,1.287,4.6,4.6,0,0,0-.281,1.629,4.729,4.729,0,0,0,.281,1.657,3.876,3.876,0,0,0,.783,1.29,3.53,3.53,0,0,0,1.2.837,3.8,3.8,0,0,0,1.525.3,3.544,3.544,0,0,0,1.676-.377,3.233,3.233,0,0,0,1.146-.978l2.242,2.11a6.35,6.35,0,0,1-2.186,1.608,7.119,7.119,0,0,1-2.992.592,7.8,7.8,0,0,1-2.853-.507,6.591,6.591,0,0,1-3.775-3.671,7.8,7.8,0,0,1,.009-5.762,6.466,6.466,0,0,1,1.535-2.211,6.8,6.8,0,0,1,2.3-1.4,8.215,8.215,0,0,1,5.618.009A5.347,5.347,0,0,1,136.442,175.778Zm-13.068-24.191H126.5l5.536,13.33h-3.576l-1.037-2.619h-5.158l-.978,2.619h-3.5Zm-6.021,27.824v2.579h-5.536v2.768h6.2v2.749h-9.3v-13.33h8.961v2.711h-5.856v2.523ZM101.18,196.77h8.961v2.709h-5.854V202h5.533v2.579h-5.533v2.768h6.193V210.1h-9.3Zm-2.07-9.263H94.14v-13.33h4.819a11.945,11.945,0,0,1,2.787.33,6.951,6.951,0,0,1,2.447,1.092,5.618,5.618,0,0,1,1.733,2.042,6.883,6.883,0,0,1,.658,3.164,6.545,6.545,0,0,1-.648,3.02,6.075,6.075,0,0,1-1.714,2.091,7.166,7.166,0,0,1-2.4,1.2A9.737,9.737,0,0,1,99.11,187.507Zm2.334-35.92h4.581l3.034,8.546h.073l2.9-8.546h4.656v13.33h-3.164l.075-9.433h-.057l-3.463,9.433h-2.259l-3.371-9.433H104.4l.075,9.433h-3.03Zm-11.427,0h8.961V154.3H93.121v2.523h5.536V159.4H93.121v2.768h6.2v2.749h-9.3ZM73.73,160.513a1.826,1.826,0,0,0-.535-.483,4.328,4.328,0,0,0-.865-.394q-.52-.177-1.176-.387a10.4,10.4,0,0,1-1.254-.49,4.21,4.21,0,0,1-1.092-.724,3.368,3.368,0,0,1-.771-1.073,3.623,3.623,0,0,1-.292-1.535,3.76,3.76,0,0,1,.453-1.9,3.9,3.9,0,0,1,1.186-1.3,5.117,5.117,0,0,1,1.657-.745,7.551,7.551,0,0,1,1.862-.233,6.908,6.908,0,0,1,2.306.413,5.985,5.985,0,0,1,2.063,1.224l-2.053,2.164a2.93,2.93,0,0,0-1.082-.837,3.048,3.048,0,0,0-1.29-.311,4.135,4.135,0,0,0-.651.057,1.712,1.712,0,0,0-.592.217,1.459,1.459,0,0,0-.443.415,1.113,1.113,0,0,0-.177.648,1.049,1.049,0,0,0,.139.566,1.238,1.238,0,0,0,.415.394,3.646,3.646,0,0,0,.651.311c.25.094.533.191.846.292.453.151.922.316,1.412.5a5.3,5.3,0,0,1,1.337.726,3.827,3.827,0,0,1,1,1.12,3.225,3.225,0,0,1,.4,1.667,4.333,4.333,0,0,1-.424,1.985,3.943,3.943,0,0,1-1.139,1.384,4.871,4.871,0,0,1-1.639.811,6.913,6.913,0,0,1-1.9.262,7.8,7.8,0,0,1-2.768-.5,5.846,5.846,0,0,1-2.223-1.419l2.11-2.145a3.883,3.883,0,0,0,1.29,1,3.453,3.453,0,0,0,1.591.406,3.24,3.24,0,0,0,.7-.073,1.771,1.771,0,0,0,.594-.245,1.208,1.208,0,0,0,.4-.453,1.412,1.412,0,0,0,.151-.677A1.057,1.057,0,0,0,73.73,160.513ZM54.011,155.8a1.238,1.238,0,0,0,.415.394,3.7,3.7,0,0,0,.648.311c.252.094.533.191.849.292.453.151.922.316,1.412.5a5.38,5.38,0,0,1,1.337.726,3.827,3.827,0,0,1,1,1.12,3.225,3.225,0,0,1,.394,1.667,4.364,4.364,0,0,1-.422,1.985,3.943,3.943,0,0,1-1.139,1.384,4.893,4.893,0,0,1-1.639.811,6.943,6.943,0,0,1-1.9.262,7.8,7.8,0,0,1-2.765-.5,5.846,5.846,0,0,1-2.223-1.419l2.11-2.145a3.883,3.883,0,0,0,1.29,1,3.451,3.451,0,0,0,1.589.406,3.262,3.262,0,0,0,.7-.073,1.738,1.738,0,0,0,.592-.245,1.194,1.194,0,0,0,.406-.453,1.412,1.412,0,0,0,.151-.677,1.073,1.073,0,0,0-.189-.639,1.826,1.826,0,0,0-.535-.483,4.292,4.292,0,0,0-.868-.394c-.344-.118-.738-.248-1.176-.387a10.517,10.517,0,0,1-1.252-.49,4.21,4.21,0,0,1-1.092-.724,3.332,3.332,0,0,1-.771-1.073,3.623,3.623,0,0,1-.292-1.535,3.783,3.783,0,0,1,.45-1.9,3.922,3.922,0,0,1,1.186-1.3,5.117,5.117,0,0,1,1.657-.745,7.57,7.57,0,0,1,1.865-.233,6.928,6.928,0,0,1,2.306.413,5.985,5.985,0,0,1,2.063,1.224l-2.053,2.164a2.93,2.93,0,0,0-1.082-.837,3.056,3.056,0,0,0-1.29-.311,4.087,4.087,0,0,0-.651.057,1.677,1.677,0,0,0-.592.217,1.432,1.432,0,0,0-.443.415,1.1,1.1,0,0,0-.177.648A1.049,1.049,0,0,0,54.011,155.8Zm9.47,96.2H60.4V239.315h3.084Zm1.947-87.092H62.192v-13.33h3.237Zm12.215,87.092H74.166l-5.109-8.3H69l.071,8.3H66.1V239.315h3.5l5.092,8.282h.052l-.071-8.282h2.975ZM77.8,151.587H88.548v2.749H84.783v10.581H81.564V154.336H77.8Zm11.484,90.348H85.695v10.074H82.63V241.935H79.044v-2.619H89.281Zm10.253,10.074H90.679V239.315h8.532V241.9H93.638v2.4h5.269v2.454H93.638v2.636h5.9Zm-1.912-42.147a7.119,7.119,0,0,1-2.992.592,7.8,7.8,0,0,1-2.853-.507A6.591,6.591,0,0,1,88,206.276a7.8,7.8,0,0,1,.009-5.762,6.461,6.461,0,0,1,1.532-2.211,6.83,6.83,0,0,1,2.3-1.4,8.214,8.214,0,0,1,5.618.009,5.363,5.363,0,0,1,2.214,1.459l-2.186,2.183a2.677,2.677,0,0,0-1.186-.922,3.888,3.888,0,0,0-1.507-.3,3.8,3.8,0,0,0-1.551.311,3.629,3.629,0,0,0-1.214.858,3.888,3.888,0,0,0-.792,1.287,4.6,4.6,0,0,0-.283,1.629,4.73,4.73,0,0,0,.283,1.657,3.875,3.875,0,0,0,.783,1.29,3.544,3.544,0,0,0,1.193.837,3.821,3.821,0,0,0,1.525.3,3.531,3.531,0,0,0,1.676-.377,3.221,3.221,0,0,0,1.148-.978l2.24,2.11A6.341,6.341,0,0,1,97.622,209.862Zm4.531,43.08-2.028-.665,5.54-13.931,2.025.7Zm9.93-.934H109V239.315h3.084Zm5.422-8.676a1.221,1.221,0,0,0,.4.377,3.517,3.517,0,0,0,.618.295c.238.09.507.182.806.278.431.141.879.3,1.344.474a5.08,5.08,0,0,1,1.275.691,3.613,3.613,0,0,1,.948,1.066,3.064,3.064,0,0,1,.377,1.587,4.152,4.152,0,0,1-.4,1.893,3.745,3.745,0,0,1-1.085,1.316,4.572,4.572,0,0,1-1.558.771,6.486,6.486,0,0,1-1.813.252,7.5,7.5,0,0,1-2.636-.474,5.6,5.6,0,0,1-2.115-1.356l2.009-2.044a3.747,3.747,0,0,0,1.228.962,3.36,3.36,0,0,0,1.514.384,2.963,2.963,0,0,0,.665-.073,1.613,1.613,0,0,0,.563-.231,1.179,1.179,0,0,0,.387-.431,1.366,1.366,0,0,0,.144-.644,1.018,1.018,0,0,0-.182-.611,1.736,1.736,0,0,0-.509-.457,4.176,4.176,0,0,0-.825-.377q-.5-.17-1.12-.368a10.774,10.774,0,0,1-1.193-.464,3.976,3.976,0,0,1-1.04-.691,3.221,3.221,0,0,1-.736-1.023,3.485,3.485,0,0,1-.278-1.462,3.571,3.571,0,0,1,.431-1.808,3.744,3.744,0,0,1,1.129-1.238,4.822,4.822,0,0,1,1.577-.71,7.21,7.21,0,0,1,1.775-.222,6.57,6.57,0,0,1,2.2.394,5.639,5.639,0,0,1,1.962,1.165l-1.954,2.063a2.741,2.741,0,0,0-1.03-.8,2.9,2.9,0,0,0-1.228-.295,3.684,3.684,0,0,0-.618.052,1.641,1.641,0,0,0-.566.207,1.429,1.429,0,0,0-.422.394,1.063,1.063,0,0,0-.17.62A1,1,0,0,0,117.506,243.333Zm2.237-33.235-2.9-5.29h-1.1v5.29h-3.143V196.77h5.081a8.809,8.809,0,0,1,1.874.2,4.889,4.889,0,0,1,1.639.67,3.489,3.489,0,0,1,1.158,1.243,3.884,3.884,0,0,1,.431,1.919,3.533,3.533,0,0,1-.733,2.277,4,4,0,0,1-2.032,1.318l3.482,5.705ZM123.6,196.77h10.751v2.749h-3.765V210.1h-3.22V199.519H123.6Zm14.4,51.589a6.264,6.264,0,0,1-1.443,2.136,6.449,6.449,0,0,1-2.2,1.372,7.746,7.746,0,0,1-2.761.483,7.667,7.667,0,0,1-2.751-.483,6.43,6.43,0,0,1-2.188-1.372,6.264,6.264,0,0,1-1.443-2.136,7.525,7.525,0,0,1,0-5.5,6.016,6.016,0,0,1,1.443-2.086,6.37,6.37,0,0,1,2.188-1.33,7.875,7.875,0,0,1,2.751-.464,7.956,7.956,0,0,1,2.761.464,6.39,6.39,0,0,1,2.2,1.33,6.016,6.016,0,0,1,1.443,2.086,7.557,7.557,0,0,1,0,5.5Zm1.051-38.262H135.82V196.77h3.239Zm.526-22.591h-3.5l5.592-13.33H144.8l5.536,13.33h-3.576l-1.037-2.619h-5.158Zm2.223,9.263h8.773v2.749h-5.592v2.747h5.158v2.655h-5.158V210.1h-3.18Zm12.3,48.8a12.086,12.086,0,0,1-1.021,1.872l-3.063,4.571h-3.638l3.159-4.373.035-.054a2.3,2.3,0,0,1-.439.106,2.894,2.894,0,0,1-.457.038,4.279,4.279,0,0,1-1.591-.3,3.961,3.961,0,0,1-1.325-.844,4.044,4.044,0,0,1-.912-1.306,4.124,4.124,0,0,1-.342-1.7,4.61,4.61,0,0,1,.394-1.936,4.241,4.241,0,0,1,1.075-1.455,4.745,4.745,0,0,1,1.594-.9,5.869,5.869,0,0,1,1.931-.314,5.955,5.955,0,0,1,1.952.314,4.667,4.667,0,0,1,1.582.9,4.344,4.344,0,0,1,1.066,1.436,4.409,4.409,0,0,1,.394,1.884A5.21,5.21,0,0,1,154.108,245.565Zm1.78-35.468h-3.237V196.77h3.237Zm9.909,38.092a6.56,6.56,0,0,1-.861,2.143,4.284,4.284,0,0,1-3.819,2.018,4.347,4.347,0,0,1-3.845-2.018,6.419,6.419,0,0,1-.87-2.143,12.32,12.32,0,0,1,0-5.118,6.245,6.245,0,0,1,.87-2.115,4.484,4.484,0,0,1,1.551-1.443,4.592,4.592,0,0,1,2.294-.537,4.546,4.546,0,0,1,2.287.537,4.426,4.426,0,0,1,1.532,1.443,6.381,6.381,0,0,1,.861,2.115,12.32,12.32,0,0,1,0,5.118Zm11.581,0a6.56,6.56,0,0,1-.861,2.143,4.284,4.284,0,0,1-3.819,2.018,4.347,4.347,0,0,1-3.845-2.018,6.468,6.468,0,0,1-.87-2.143,12.319,12.319,0,0,1,0-5.118,6.292,6.292,0,0,1,.87-2.115,4.484,4.484,0,0,1,1.551-1.443,4.592,4.592,0,0,1,2.294-.537,4.546,4.546,0,0,1,2.287.537,4.426,4.426,0,0,1,1.532,1.443,6.381,6.381,0,0,1,.861,2.115,12.319,12.319,0,0,1,0,5.118Zm-3.02-40.711-.978,2.619h-3.5l5.59-13.328h3.126L184.13,210.1h-3.579l-1.035-2.619Zm12.182,44.53h-2.994v-9.322l-2.365,1.827-1.561-2.134,4.175-3.065h2.744Zm8.1-.922a1.766,1.766,0,0,1-.377.538,1.733,1.733,0,0,1-.556.356,1.668,1.668,0,0,1-.663.137,1.841,1.841,0,0,1-.681-.127,1.687,1.687,0,0,1-.566-.358,1.821,1.821,0,0,1-.384-.538,1.507,1.507,0,0,1-.144-.662,1.585,1.585,0,0,1,.144-.672,1.8,1.8,0,0,1,.384-.547,1.832,1.832,0,0,1,.566-.368,1.756,1.756,0,0,1,.681-.134,1.707,1.707,0,0,1,.663.134,1.715,1.715,0,0,1,.934.9,1.647,1.647,0,0,1,0,1.346Zm0-5.757a1.913,1.913,0,0,1-.377.549,1.722,1.722,0,0,1-.556.368,1.748,1.748,0,0,1-.663.132,1.84,1.84,0,0,1-.681-.125,1.687,1.687,0,0,1-.566-.358,1.852,1.852,0,0,1-.384-.538,1.521,1.521,0,0,1-.144-.663,1.589,1.589,0,0,1,.144-.674,1.834,1.834,0,0,1,.384-.547,1.868,1.868,0,0,1,.566-.365,1.757,1.757,0,0,1,.681-.137,1.709,1.709,0,0,1,.663.137,1.715,1.715,0,0,1,.934.9,1.54,1.54,0,0,1,.144.653A1.57,1.57,0,0,1,194.642,245.33Zm.677-36.823a7.165,7.165,0,0,1-2.4,1.2,9.737,9.737,0,0,1-2.711.387h-4.97V196.77h4.819a11.913,11.913,0,0,1,2.787.328,6.953,6.953,0,0,1,2.447,1.092,5.6,5.6,0,0,1,1.733,2.042,6.882,6.882,0,0,1,.66,3.164,6.545,6.545,0,0,1-.651,3.02A6.075,6.075,0,0,1,195.319,208.506Zm11.085,43.5h-9.18v-2.5l4.949-4.477a4.647,4.647,0,0,0,.752-.91,1.95,1.95,0,0,0,.288-1.04,1.478,1.478,0,0,0-.429-1.1,1.733,1.733,0,0,0-2.376.108,2.389,2.389,0,0,0-.563,1.389l-2.888-.394a4.463,4.463,0,0,1,1.6-3.013,4.624,4.624,0,0,1,1.478-.813,5.518,5.518,0,0,1,1.766-.278,6.328,6.328,0,0,1,1.7.231,4.423,4.423,0,0,1,1.469.719,3.564,3.564,0,0,1,1.03,1.219,3.627,3.627,0,0,1,.387,1.721,3.911,3.911,0,0,1-.179,1.228,4.064,4.064,0,0,1-.493,1.011,6,6,0,0,1-.717.872q-.4.4-.835.794l-2.94,2.619H206.4Zm-2.857-42.062a6.733,6.733,0,0,1-2.3-1.44,6.548,6.548,0,0,1-1.516-2.24,7.4,7.4,0,0,1-.547-2.89,7.308,7.308,0,0,1,.547-2.888,6.278,6.278,0,0,1,1.516-2.195,6.734,6.734,0,0,1,2.3-1.393,8.253,8.253,0,0,1,2.888-.49,8.338,8.338,0,0,1,2.9.49,6.709,6.709,0,0,1,2.306,1.393,6.277,6.277,0,0,1,1.516,2.195,7.308,7.308,0,0,1,.547,2.888,7.4,7.4,0,0,1-.547,2.89,6.548,6.548,0,0,1-1.516,2.24,6.707,6.707,0,0,1-2.306,1.44,8.079,8.079,0,0,1-2.9.507A8,8,0,0,1,203.547,209.947Zm14.528,38.243a6.559,6.559,0,0,1-.861,2.143,4.284,4.284,0,0,1-3.819,2.018,4.339,4.339,0,0,1-3.845-2.018,6.419,6.419,0,0,1-.87-2.143,12.319,12.319,0,0,1,0-5.118,6.245,6.245,0,0,1,.87-2.115,4.5,4.5,0,0,1,1.549-1.443,4.6,4.6,0,0,1,2.3-.537,4.553,4.553,0,0,1,2.287.537,4.426,4.426,0,0,1,1.532,1.443,6.38,6.38,0,0,1,.861,2.115,12.318,12.318,0,0,1,0,5.118Zm1.143-83.273h-3.237v-13.33h3.237Zm8.018,87.092h-2.994v-9.322l-2.367,1.827-1.558-2.134,4.175-3.065h2.744ZM225.7,164.766a6.755,6.755,0,0,1-2.3-1.44,6.616,6.616,0,0,1-1.516-2.24,7.454,7.454,0,0,1-.545-2.89,7.35,7.35,0,0,1,.545-2.888,6.341,6.341,0,0,1,1.516-2.195,6.759,6.759,0,0,1,2.3-1.393,8.792,8.792,0,0,1,5.79,0,6.733,6.733,0,0,1,2.306,1.393,6.341,6.341,0,0,1,1.516,2.195,7.35,7.35,0,0,1,.545,2.888,7.454,7.454,0,0,1-.545,2.89,6.616,6.616,0,0,1-1.516,2.24,6.729,6.729,0,0,1-2.306,1.44,8.521,8.521,0,0,1-5.79,0Zm15.067,85.065a4.022,4.022,0,0,1-1.1,1.408,4.8,4.8,0,0,1-1.568.835,5.951,5.951,0,0,1-1.811.278,6.024,6.024,0,0,1-1.641-.224,5.229,5.229,0,0,1-1.417-.639,4.3,4.3,0,0,1-1.094-1.011,4.091,4.091,0,0,1-.672-1.353l2.744-.844a2.107,2.107,0,0,0,.743,1.094,2.159,2.159,0,0,0,2.636-.035,1.69,1.69,0,0,0,.566-1.382,1.754,1.754,0,0,0-.233-.931,1.809,1.809,0,0,0-.6-.6,2.607,2.607,0,0,0-.832-.314,5.01,5.01,0,0,0-.934-.09,10.122,10.122,0,0,0-3.1.556l.3-7.261h7.782V241.9h-5.109l-.108,2.009a3.756,3.756,0,0,1,.637-.1c.233-.017.446-.026.637-.026a6.246,6.246,0,0,1,1.792.25,4.137,4.137,0,0,1,1.462.764,3.623,3.623,0,0,1,.976,1.264,4.022,4.022,0,0,1,.361,1.756A4.6,4.6,0,0,1,240.771,249.83Zm9.341-84.914H246.46l-5.366-8.718h-.057l.075,8.718h-3.124v-13.33h3.671l5.345,8.7h.057l-.073-8.7h3.124Z"
      transform="translate(-21.099 -122.277)" fill="#fff" />
    <path id="Path_166" data-name="Path 166" d="M90.721,150.375h3.351L92.414,145.8Z"
      transform="translate(73.42 -90.342)" fill="#fff" />
    <path id="Path_167" data-name="Path 167"
      d="M105.283,174.315a2.926,2.926,0,0,0-.566-1.037,1.205,1.205,0,0,0-.96-.422,1.238,1.238,0,0,0-.969.422,2.916,2.916,0,0,0-.582,1.037,6.309,6.309,0,0,0-.278,1.334c-.047.481-.071.917-.071,1.311s.024.851.071,1.337a6.305,6.305,0,0,0,.278,1.344,2.927,2.927,0,0,0,.582,1.04,1.245,1.245,0,0,0,.969.422,1.213,1.213,0,0,0,.96-.422,2.937,2.937,0,0,0,.566-1.04,6.619,6.619,0,0,0,.266-1.344,13.238,13.238,0,0,0,.073-1.337,12.862,12.862,0,0,0-.073-1.311A6.624,6.624,0,0,0,105.283,174.315Z"
      transform="translate(88.538 -53.611)" fill="#fff" />
    <path id="Path_168" data-name="Path 168"
      d="M105.723,159.016a4.609,4.609,0,0,0-.283-1.617,3.885,3.885,0,0,0-.783-1.292,3.57,3.57,0,0,0-1.2-.846,3.86,3.86,0,0,0-1.556-.309,3.776,3.776,0,0,0-1.542.309A3.632,3.632,0,0,0,98.37,157.4a4.715,4.715,0,0,0-.271,1.617,4.8,4.8,0,0,0,.281,1.665,3.95,3.95,0,0,0,.783,1.311,3.58,3.58,0,0,0,1.2.856,3.981,3.981,0,0,0,3.086,0,3.666,3.666,0,0,0,1.2-.856,3.855,3.855,0,0,0,.792-1.311A4.8,4.8,0,0,0,105.723,159.016Z"
      transform="translate(83.436 -77.917)" fill="#fff" />
  </g>
  <g id="Group_39" data-name="Group 39" transform="translate(51.351 386.425)">
    <path id="Path_169" data-name="Path 169"
      d="M43.225,209.93H41.091V188.954h6.165a13,13,0,0,1,2.857.3,6.446,6.446,0,0,1,2.282.962,4.537,4.537,0,0,1,1.5,1.733,5.814,5.814,0,0,1,.533,2.607,5.125,5.125,0,0,1-1.542,3.746,5.355,5.355,0,0,1-1.688,1.113,7.418,7.418,0,0,1-2.134.533l6.132,9.984H52.587l-5.807-9.805H43.225Zm0-11.642h3.7a7.086,7.086,0,0,0,3.97-.936,3.143,3.143,0,0,0,1.393-2.8,3.641,3.641,0,0,0-.387-1.749,3.172,3.172,0,0,0-1.066-1.155A4.857,4.857,0,0,0,49.18,191a10.368,10.368,0,0,0-2.162-.207H43.225Z"
      transform="translate(-41.091 -188.421)" fill="#fff" />
    <path id="Path_170" data-name="Path 170"
      d="M50.75,208.032H61.982v1.9H48.619V188.954H61.626v1.9H50.75v7.2H60.914v1.9H50.75Z"
      transform="translate(-30.871 -188.421)" fill="#fff" />
    <path id="Path_171" data-name="Path 171" d="M62.117,196.134H55.48v-1.688h6.637Z"
      transform="translate(-21.556 -180.965)" fill="#fff" />
    <path id="Path_172" data-name="Path 172"
      d="M66.488,188.728a5.385,5.385,0,0,1,3.265.962,7.056,7.056,0,0,1,2.115,2.52A12.252,12.252,0,0,1,73,195.749a23.853,23.853,0,0,1,.342,4.029A23.6,23.6,0,0,1,73,203.793a12.275,12.275,0,0,1-1.136,3.525,6.921,6.921,0,0,1-2.115,2.5,5.443,5.443,0,0,1-3.265.95,5.5,5.5,0,0,1-3.3-.95,6.915,6.915,0,0,1-2.112-2.5,11.914,11.914,0,0,1-1.125-3.525,24.6,24.6,0,0,1-.325-4.015,24.863,24.863,0,0,1,.325-4.029,11.9,11.9,0,0,1,1.125-3.539,7.05,7.05,0,0,1,2.112-2.52A5.443,5.443,0,0,1,66.488,188.728Zm0,1.808a3.271,3.271,0,0,0-2.32.858,5.944,5.944,0,0,0-1.455,2.193,11.928,11.928,0,0,0-.745,2.975,25.994,25.994,0,0,0-.207,3.216,25.589,25.589,0,0,0,.207,3.2,11.745,11.745,0,0,0,.745,2.949,5.82,5.82,0,0,0,1.455,2.162,3.3,3.3,0,0,0,2.32.844,3.253,3.253,0,0,0,2.287-.844,5.852,5.852,0,0,0,1.457-2.162,12.268,12.268,0,0,0,.757-2.949,23.582,23.582,0,0,0,.224-3.2,23.954,23.954,0,0,0-.224-3.216,12.458,12.458,0,0,0-.757-2.975,5.977,5.977,0,0,0-1.457-2.193A3.222,3.222,0,0,0,66.488,190.536Z"
      transform="translate(-15.926 -188.728)" fill="#fff" />
    <path id="Path_173" data-name="Path 173"
      d="M71.69,198.326h.919a8.267,8.267,0,0,0,1.9-.207,4.489,4.489,0,0,0,1.556-.667,3.259,3.259,0,0,0,1.051-1.2,3.806,3.806,0,0,0,.384-1.778,3.9,3.9,0,0,0-.325-1.613,3.67,3.67,0,0,0-.9-1.245,4.107,4.107,0,0,0-1.334-.8A4.375,4.375,0,0,0,69.349,193l-1.806-.95a6.4,6.4,0,0,1,2.487-2.5,7.14,7.14,0,0,1,3.437-.813,7.442,7.442,0,0,1,2.355.368,6.053,6.053,0,0,1,1.964,1.082,5.068,5.068,0,0,1,1.349,1.763,5.608,5.608,0,0,1,.5,2.417,4.742,4.742,0,0,1-1.037,3.124,4.921,4.921,0,0,1-2.605,1.674v.059a5.447,5.447,0,0,1,3.006,1.735,5.035,5.035,0,0,1,1.2,3.48,6.244,6.244,0,0,1-.549,2.681,6.057,6.057,0,0,1-1.466,1.987,6.326,6.326,0,0,1-2.148,1.243,7.821,7.821,0,0,1-2.591.431,7.257,7.257,0,0,1-4.029-1.113,6.928,6.928,0,0,1-2.607-3.185l2.013-.74a4.611,4.611,0,0,0,1.778,2.355,5.129,5.129,0,0,0,4.578.533,4.449,4.449,0,0,0,1.481-.886,4.394,4.394,0,0,0,1.023-1.41,4.484,4.484,0,0,0,.384-1.9,4.012,4.012,0,0,0-.46-2,3.745,3.745,0,0,0-1.228-1.318,5.357,5.357,0,0,0-1.747-.729,9.2,9.2,0,0,0-2.016-.219H71.69Z"
      transform="translate(-6.184 -188.728)" fill="#fff" />
    <path id="Path_174" data-name="Path 174"
      d="M83.749,199.125a5.428,5.428,0,0,1,2.843,1.987,5.8,5.8,0,0,1,1.127,3.612,5.591,5.591,0,0,1-.549,2.506,5.887,5.887,0,0,1-1.466,1.893,6.576,6.576,0,0,1-2.148,1.217,7.827,7.827,0,0,1-5.125,0,6.552,6.552,0,0,1-2.148-1.217,5.855,5.855,0,0,1-1.466-1.893,5.592,5.592,0,0,1-.549-2.506,6.278,6.278,0,0,1,.3-1.969,5.74,5.74,0,0,1,.83-1.629,5.375,5.375,0,0,1,1.259-1.231,5.812,5.812,0,0,1,1.584-.771v-.057a4.207,4.207,0,0,1-1.287-.7,4.564,4.564,0,0,1-.995-1.1,5.628,5.628,0,0,1-.651-1.393,5.163,5.163,0,0,1-.238-1.554,5.451,5.451,0,0,1,.476-2.31,5.289,5.289,0,0,1,1.287-1.766,5.937,5.937,0,0,1,1.881-1.125,6.694,6.694,0,0,1,4.55,0,5.928,5.928,0,0,1,1.9,1.125,5.322,5.322,0,0,1,1.287,1.766,5.486,5.486,0,0,1,.474,2.31,5.161,5.161,0,0,1-.236,1.554,5.549,5.549,0,0,1-.653,1.393,4.507,4.507,0,0,1-.993,1.1,4.207,4.207,0,0,1-1.287.7ZM76.4,204.491a4.771,4.771,0,0,0,.328,1.775,3.935,3.935,0,0,0,.931,1.422,4.395,4.395,0,0,0,1.452.934,5.348,5.348,0,0,0,3.763,0,4.395,4.395,0,0,0,1.452-.934,4,4,0,0,0,.934-1.422,4.866,4.866,0,0,0,.325-1.775,4.66,4.66,0,0,0-.325-1.752,4.118,4.118,0,0,0-.934-1.391,4.248,4.248,0,0,0-1.452-.917,5.564,5.564,0,0,0-3.763,0,4.248,4.248,0,0,0-1.452.917,4.045,4.045,0,0,0-.931,1.391A4.571,4.571,0,0,0,76.4,204.491Zm.74-10.046a3.731,3.731,0,0,0,.3,1.509,3.534,3.534,0,0,0,.83,1.186,3.879,3.879,0,0,0,1.228.785,4.1,4.1,0,0,0,2.992,0,3.863,3.863,0,0,0,1.231-.785,3.534,3.534,0,0,0,.83-1.186,3.77,3.77,0,0,0,.295-1.509,4.1,4.1,0,0,0-.295-1.554,3.729,3.729,0,0,0-.816-1.247,3.814,3.814,0,0,0-1.214-.813,4.095,4.095,0,0,0-3.051,0,3.814,3.814,0,0,0-1.214.813,3.729,3.729,0,0,0-.816,1.247A4.052,4.052,0,0,0,77.141,194.445Z"
      transform="translate(3.949 -188.728)" fill="#fff" />
    <path id="Path_175" data-name="Path 175" d="M82.546,210.772l-1.719-.566L89.8,188.728l1.688.592Z"
      transform="translate(12.855 -188.728)" fill="#fff" />
    <path id="Path_176" data-name="Path 176"
      d="M99.446,210.236H86.055v-2.221l8.591-8.683c.316-.316.627-.655.934-1.023a8.52,8.52,0,0,0,.813-1.139,5.754,5.754,0,0,0,.563-1.259,4.585,4.585,0,0,0,.207-1.377,4.088,4.088,0,0,0-.325-1.66,3.635,3.635,0,0,0-.9-1.259,4.107,4.107,0,0,0-1.334-.8,4.485,4.485,0,0,0-1.584-.281,4.075,4.075,0,0,0-2.846,1.049,4.8,4.8,0,0,0-1.481,2.683l-2.1-.415a5.978,5.978,0,0,1,.785-2.044,6.26,6.26,0,0,1,1.422-1.631,6.573,6.573,0,0,1,1.91-1.066,6.763,6.763,0,0,1,2.313-.384,7.824,7.824,0,0,1,2.414.368,5.831,5.831,0,0,1,1.992,1.1A5.293,5.293,0,0,1,98.786,192a5.785,5.785,0,0,1,.512,2.5,5.939,5.939,0,0,1-.283,1.867,8,8,0,0,1-.74,1.629,9.494,9.494,0,0,1-1.08,1.466c-.415.464-.851.922-1.3,1.379l-7.556,7.493H99.446Z"
      transform="translate(19.952 -188.728)" fill="#fff" />
    <path id="Path_177" data-name="Path 177"
      d="M100.289,188.728a5.387,5.387,0,0,1,3.268.962,7.08,7.08,0,0,1,2.115,2.52,12.253,12.253,0,0,1,1.136,3.539,23.855,23.855,0,0,1,.342,4.029,23.606,23.606,0,0,1-.342,4.015,12.276,12.276,0,0,1-1.136,3.525,6.944,6.944,0,0,1-2.115,2.5,6.143,6.143,0,0,1-6.564,0,6.921,6.921,0,0,1-2.115-2.5,11.982,11.982,0,0,1-1.122-3.525,24.6,24.6,0,0,1-.325-4.015,24.862,24.862,0,0,1,.325-4.029,11.964,11.964,0,0,1,1.122-3.539,7.056,7.056,0,0,1,2.115-2.52A5.436,5.436,0,0,1,100.289,188.728Zm0,1.808a3.265,3.265,0,0,0-2.317.858,5.977,5.977,0,0,0-1.457,2.193,12.03,12.03,0,0,0-.743,2.975,25.541,25.541,0,0,0-.207,3.216,25.146,25.146,0,0,0,.207,3.2,11.846,11.846,0,0,0,.743,2.949,5.852,5.852,0,0,0,1.457,2.162,3.3,3.3,0,0,0,2.317.844,3.259,3.259,0,0,0,2.289-.844,5.909,5.909,0,0,0,1.457-2.162,12.268,12.268,0,0,0,.757-2.949,23.581,23.581,0,0,0,.224-3.2,23.953,23.953,0,0,0-.224-3.216,12.458,12.458,0,0,0-.757-2.975,6.036,6.036,0,0,0-1.457-2.193A3.228,3.228,0,0,0,100.289,190.536Z"
      transform="translate(29.966 -188.728)" fill="#fff" />
    <path id="Path_178" data-name="Path 178" d="M108.654,209.93H106.52V191.59l-3.793,3.23-1.3-1.481,5.335-4.385h1.9Z"
      transform="translate(40.816 -188.421)" fill="#fff" />
    <path id="Path_179" data-name="Path 179"
      d="M112.211,198.109l.061.059a3.588,3.588,0,0,1,1.332-.561,7.032,7.032,0,0,1,1.66-.207,6.638,6.638,0,0,1,2.532.474,6.182,6.182,0,0,1,2.03,1.316,6.03,6.03,0,0,1,1.346,2.046,6.847,6.847,0,0,1,.49,2.622,6.981,6.981,0,0,1-.5,2.695,5.9,5.9,0,0,1-1.424,2.075,6.722,6.722,0,0,1-2.162,1.349,7.819,7.819,0,0,1-5.451,0,6.733,6.733,0,0,1-2.164-1.349,5.859,5.859,0,0,1-1.422-2.075,6.938,6.938,0,0,1-.5-2.695,8,8,0,0,1,.563-3.022,18.759,18.759,0,0,1,1.332-2.666l5.72-9.214h2.459Zm-2.044,5.748a5.18,5.18,0,0,0,.342,1.91,4.431,4.431,0,0,0,.962,1.511,4.545,4.545,0,0,0,1.483,1.009,5.038,5.038,0,0,0,3.791,0,4.559,4.559,0,0,0,1.481-1.009,4.471,4.471,0,0,0,.964-1.511,5.228,5.228,0,0,0,.339-1.91,5.347,5.347,0,0,0-.325-1.881,4.365,4.365,0,0,0-.934-1.511,4.2,4.2,0,0,0-1.481-.993,5.466,5.466,0,0,0-3.881,0,4.208,4.208,0,0,0-1.483.993,4.365,4.365,0,0,0-.934,1.511A5.348,5.348,0,0,0,110.167,203.856Z"
      transform="translate(49.79 -188.421)" fill="#fff" />
  </g>
</svg>