<svg xmlns="http://www.w3.org/2000/svg" viewBox="0 0 267.833 431.357">
  <g id="Group_43" data-name="Group 43" transform="translate(-45.595 -58.61)">
    <path id="Path_180" data-name="Path 180"
      d="M273.63,456.179H32.828A13.53,13.53,0,0,1,19.31,442.666V38.338A13.534,13.534,0,0,1,32.828,24.822h240.8a13.534,13.534,0,0,1,13.513,13.516V442.666a13.531,13.531,0,0,1-13.513,13.513M32.828,29.046a9.3,9.3,0,0,0-9.3,9.291V442.666a9.3,9.3,0,0,0,9.3,9.289h240.8a9.3,9.3,0,0,0,9.289-9.289V38.338a9.3,9.3,0,0,0-9.289-9.291Z"
      transform="translate(26.285 33.788)" fill="#fff" />
    <path id="Path_181" data-name="Path 181"
      d="M54.6,56.8a57.514,57.514,0,0,0-1.041,32.278,57.106,57.106,0,0,1,9.587-1.365,236.556,236.556,0,0,1,1.081-32.023A78.75,78.75,0,0,0,54.6,56.8"
      transform="translate(70.421 75.808)" fill="#fff" />
    <path id="Path_182" data-name="Path 182"
      d="M52.906,71.952a57.459,57.459,0,0,0,10.538,19.1c-.864-6.673-1.455-13.492-1.766-20.332a53.217,53.217,0,0,0-8.772,1.237"
      transform="translate(72.017 96.259)" fill="#fff" />
    <path id="Path_183" data-name="Path 183"
      d="M87.084,76.641a81.678,81.678,0,0,1,15.974,19.3,81.7,81.7,0,0,0,14.871-21.56,84.227,84.227,0,0,0-13.648-17.924Z"
      transform="translate(118.54 76.848)" fill="#fff" />
    <path id="Path_184" data-name="Path 184"
      d="M72.724,71.71a104.952,104.952,0,0,1,10.7,4.444L103.89,55.715q-1.172-.708-2.361-1.393a115.309,115.309,0,0,0-19.284-8.807c-2.874,7.572-6.078,16.375-9.52,26.2"
      transform="translate(98.993 61.956)" fill="#fff" />
    <path id="Path_185" data-name="Path 185"
      d="M63.518,100.544a57.791,57.791,0,0,0,7.428,3.752c5.237-5.289,10.486-11.046,15.624-17.131l-14.3-14.281c-3.157,9.7-6.1,18.991-8.755,27.659"
      transform="translate(86.462 99.212)" fill="#fff" />
    <path id="Path_186" data-name="Path 186"
      d="M72.353,58.008l5.178,7.535L81.38,61.7c-2.963-1.384-5.988-2.619-9.027-3.691"
      transform="translate(98.488 78.962)" fill="#fff" />
    <path id="Path_187" data-name="Path 187"
      d="M77.37,90.445A56.786,56.786,0,0,1,89.7,104.933,144.888,144.888,0,0,0,113.9,85.318,76.72,76.72,0,0,0,98.12,66.091Z"
      transform="translate(105.317 89.964)" fill="#fff" />
    <path id="Path_188" data-name="Path 188"
      d="M65.209,46.949a56.678,56.678,0,0,0-11.7,18.122,84.331,84.331,0,0,1,8.68-.876,159.171,159.171,0,0,1,3.022-17.246"
      transform="translate(72.835 63.908)" fill="#fff" />
    <path id="Path_189" data-name="Path 189"
      d="M94.542,84.107A63.508,63.508,0,0,1,97.8,91.549a57.031,57.031,0,0,0,9.546-24.221A92.342,92.342,0,0,1,94.542,84.107"
      transform="translate(128.692 91.648)" fill="#fff" />
    <path id="Path_190" data-name="Path 190"
      d="M75.321,92.906a57.163,57.163,0,0,0,18.125-2.418,41.218,41.218,0,0,0-2.432-6.042,167.276,167.276,0,0,1-15.693,8.46"
      transform="translate(102.528 114.949)" fill="#fff" />
    <path id="Path_191" data-name="Path 191"
      d="M83.207,94.8a43.944,43.944,0,0,1,2.753,6.807A56.912,56.912,0,0,0,110.876,83.6a60.565,60.565,0,0,0-3.341-8.1A146,146,0,0,1,83.207,94.8"
      transform="translate(113.263 102.762)" fill="#fff" />
    <path id="Path_192" data-name="Path 192"
      d="M95.228,59.2a88.26,88.26,0,0,1,11.556,14.344,57.632,57.632,0,0,0-6-20.864Z"
      transform="translate(129.626 71.713)" fill="#fff" />
    <path id="Path_193" data-name="Path 193"
      d="M67.852,99.069a57.469,57.469,0,0,0,11.9,2.826A168.276,168.276,0,0,0,99.757,91.235,54.846,54.846,0,0,0,88.092,77.516l-4.949,5.809s-10.3,10.8-15.291,15.745"
      transform="translate(92.361 105.516)" fill="#fff" />
    <path id="Path_194" data-name="Path 194"
      d="M65.688,44.881a110.882,110.882,0,0,1,23.926,4.777c.059-.161.118-.319.175-.477,1.386-3.577,2.678-6.8,3.858-9.594-1.216-.076-2.427-.12-3.629-.12a57.53,57.53,0,0,0-24.33,5.414"
      transform="translate(89.416 53.723)" fill="#fff" />
    <path id="Path_195" data-name="Path 195"
      d="M87.881,73.869c.269.083.538.163.808.248,3.377-9.83,6.545-18.647,9.419-26.235a108.058,108.058,0,0,0-28.094-4.923,56.412,56.412,0,0,0-7.131,5.124,149.4,149.4,0,0,0-4.274,21.449,94.413,94.413,0,0,1,10.241.477l7.662-12.68Z"
      transform="translate(79.78 58.475)" fill="#fff" />
    <path id="Path_196" data-name="Path 196"
      d="M59.957,94.776l.111.12a57.242,57.242,0,0,0,8.677,7.124C71.4,92.93,74.3,83.39,77.383,73.627a65.039,65.039,0,0,0-19.471-2.949c.3,8.186.987,16.29,2.045,24.1"
      transform="translate(78.831 96.206)" fill="#fff" />
    <path id="Path_197" data-name="Path 197"
      d="M77.239,50.491a117.127,117.127,0,0,1,19.634,8.97c1.07.619,2.132,1.254,3.178,1.9l9.785-9.771A56.8,56.8,0,0,0,81.577,39.67c-1.223,2.895-2.626,6.4-4.186,10.434Z"
      transform="translate(105.139 54)" fill="#fff" />
    <path id="Path_198" data-name="Path 198"
      d="M58.305,87.685a67.155,67.155,0,0,1,14.677,1.653L57.944,74.313q-.195,6.588-.038,13.374l.4,0m.945-32.037c-.614,5.44-1.025,11.046-1.242,16.781L67.956,55.96c-2.923-.246-5.844-.347-8.706-.312"
      transform="translate(78.728 75.74)" fill="#fff" />
    <path id="Path_199" data-name="Path 199"
      d="M170.366,70.9a63.676,63.676,0,1,1-13.128-15.6l3.875-3.839a69.077,69.077,0,1,0,12.958,15.081Z"
      transform="translate(63.617 46.913)" fill="#fff" />
    <path id="Path_200" data-name="Path 200"
      d="M60.889,98.266,92.253,129.6,165.789,42.61l-5.747-5.754L92.253,103.924,73.741,76.994Z"
      transform="translate(82.883 50.169)" fill="#fff" />
    <path id="Path_201" data-name="Path 201"
      d="M46.735,102.255h6.989v25.1H46.735Zm10.64,0h6.5L74.224,115.53V102.255h6.845v25.1H74.963L64.217,113.589v13.768H57.375Zm34.868,6.1h-7.53v-6.1h22.016v6.1H99.2v19H92.243Zm18.134-6.1h21.331l-1.185,5.915h-13.3v3.8h10.859v5.49H117.22v3.974H130.7l1.19,5.922H110.377Zm74.676,12.479a13.088,13.088,0,1,1-13.086-13.107,13.1,13.1,0,0,1,13.086,13.107m-13.086-6.654a6.655,6.655,0,1,0,6.649,6.654,6.653,6.653,0,0,0-6.649-6.654M157.46,122.16a13.106,13.106,0,1,1-.189-15.121l-5.112,3.948a6.651,6.651,0,1,0,.047,7.435Z"
      transform="translate(63.617 138.337)" fill="#fff" />
    <g id="Group_41" data-name="Group 41" transform="translate(49.819 288.723)">
      <path id="Path_202" data-name="Path 202"
        d="M70.236,174.052a3.389,3.389,0,0,0-1.148-.807,3.64,3.64,0,0,0-1.483-.3,3.546,3.546,0,0,0-2.621,1.1,3.508,3.508,0,0,0-.746,1.228,4.773,4.773,0,0,0,.009,3.133,3.716,3.716,0,0,0,.746,1.247,3.371,3.371,0,0,0,1.14.819,3.819,3.819,0,0,0,2.944,0,3.494,3.494,0,0,0,1.148-.819,3.66,3.66,0,0,0,.756-1.247,4.544,4.544,0,0,0,.269-1.589,4.368,4.368,0,0,0-.269-1.544A3.691,3.691,0,0,0,70.236,174.052Z"
        transform="translate(37.27 -53.304)" fill="#fff" />
      <path id="Path_203" data-name="Path 203"
        d="M109.026,161.768a5.083,5.083,0,0,0-.314-1.8,4.27,4.27,0,0,0-.869-1.433,4.031,4.031,0,0,0-1.341-.945,4.255,4.255,0,0,0-1.728-.345,4.111,4.111,0,0,0-3.058,1.289,4.088,4.088,0,0,0-.869,1.433,5.243,5.243,0,0,0-.3,1.8,5.349,5.349,0,0,0,.314,1.854,4.425,4.425,0,0,0,.869,1.455,3.907,3.907,0,0,0,1.332.952,4.424,4.424,0,0,0,3.436,0,4.014,4.014,0,0,0,1.341-.952,4.252,4.252,0,0,0,.878-1.455A5.294,5.294,0,0,0,109.026,161.768Z"
        transform="translate(87.04 -74.683)" fill="#fff" />
      <path id="Path_204" data-name="Path 204"
        d="M70.753,149.254a1.4,1.4,0,0,0,.555-1.207,1.188,1.188,0,0,0-.576-1.1,3.417,3.417,0,0,0-1.707-.342H67.265v3.058h1.927A2.6,2.6,0,0,0,70.753,149.254Z"
        transform="translate(41.743 -89.161)" fill="#fff" />
      <path id="Path_205" data-name="Path 205"
        d="M90.479,174.318a2.89,2.89,0,0,0-.564-1.039,1.21,1.21,0,0,0-.961-.423,1.236,1.236,0,0,0-.97.423,2.92,2.92,0,0,0-.583,1.039,6.319,6.319,0,0,0-.279,1.336c-.047.482-.071.919-.071,1.313s.024.852.071,1.339a6.315,6.315,0,0,0,.279,1.346,2.931,2.931,0,0,0,.583,1.041,1.244,1.244,0,0,0,.97.423,1.218,1.218,0,0,0,.961-.423,2.9,2.9,0,0,0,.564-1.041,6.47,6.47,0,0,0,.269-1.346,13.262,13.262,0,0,0,.073-1.339,12.886,12.886,0,0,0-.073-1.313A6.473,6.473,0,0,0,90.479,174.318Z"
        transform="translate(68.676 -53.428)" fill="#fff" />
      <path id="Path_206" data-name="Path 206"
        d="M98.948,158.252a4.383,4.383,0,0,0-1.551-.7,7.749,7.749,0,0,0-1.79-.21h-1.78v8.673h1.7a7.591,7.591,0,0,0,1.854-.22,4.423,4.423,0,0,0,1.573-.72,3.579,3.579,0,0,0,1.089-1.344,5.489,5.489,0,0,0,0-4.156A3.5,3.5,0,0,0,98.948,158.252Z"
        transform="translate(77.9 -74.551)" fill="#fff" />
      <path id="Path_207" data-name="Path 207"
        d="M85.569,174.318A2.894,2.894,0,0,0,85,173.279a1.207,1.207,0,0,0-.961-.423,1.231,1.231,0,0,0-.968.423,2.885,2.885,0,0,0-.583,1.039,6.174,6.174,0,0,0-.281,1.336c-.047.482-.071.919-.071,1.313s.024.852.071,1.339a6.171,6.171,0,0,0,.281,1.346,2.9,2.9,0,0,0,.583,1.041,1.239,1.239,0,0,0,.968.423,1.214,1.214,0,0,0,.961-.423,2.905,2.905,0,0,0,.567-1.041,6.627,6.627,0,0,0,.269-1.346q.071-.73.071-1.339c0-.394-.024-.831-.071-1.313A6.632,6.632,0,0,0,85.569,174.318Z"
        transform="translate(61.988 -53.428)" fill="#fff" />
      <path id="Path_208" data-name="Path 208"
        d="M71.1,149.372a4.062,4.062,0,0,0-1.844-.354H67.265v3.393h2.012a5.346,5.346,0,0,0,.869-.073,2.787,2.787,0,0,0,.817-.262,1.5,1.5,0,0,0,.826-1.426A1.314,1.314,0,0,0,71.1,149.372Z"
        transform="translate(41.743 -85.877)" fill="#fff" />
      <path id="Path_209" data-name="Path 209" d="M87.652,162.812H91.38l-1.842-5.091Z"
        transform="translate(69.494 -74.031)" fill="#fff" />
      <path id="Path_210" data-name="Path 210" d="M77,177.932h3.07v-4.7h-.054Z" transform="translate(54.992 -52.922)"
        fill="#fff" />
      <path id="Path_211" data-name="Path 211"
        d="M63.116,157.57a2.507,2.507,0,0,0-.779-.241,6.021,6.021,0,0,0-.831-.061H59.591v3.457h1.7a6.016,6.016,0,0,0,.907-.073,2.872,2.872,0,0,0,.841-.264,1.582,1.582,0,0,0,.621-.543,1.62,1.62,0,0,0,.241-.923,1.491,1.491,0,0,0-.22-.848A1.537,1.537,0,0,0,63.116,157.57Z"
        transform="translate(31.297 -74.647)" fill="#fff" />
      <path id="Path_212" data-name="Path 212" d="M65,136.428l-1.886,5.091h3.729Z" transform="translate(36.09 -103.014)"
        fill="#fff" />
      <path id="Path_213" data-name="Path 213"
        d="M76.475,143.779a3.562,3.562,0,0,0,1.091-1.344,5.489,5.489,0,0,0,0-4.156,3.482,3.482,0,0,0-1.091-1.32,4.354,4.354,0,0,0-1.549-.7,7.756,7.756,0,0,0-1.792-.21h-1.78v8.673h1.7a7.606,7.606,0,0,0,1.854-.22A4.411,4.411,0,0,0,76.475,143.779Z"
        transform="translate(47.309 -103.534)" fill="#fff" />
      <path id="Path_214" data-name="Path 214"
        d="M116.943,144.735a4.038,4.038,0,0,0,1.341-.952,4.327,4.327,0,0,0,.878-1.455,5.294,5.294,0,0,0,.314-1.854,5.083,5.083,0,0,0-.314-1.8,4.309,4.309,0,0,0-.869-1.433,4.054,4.054,0,0,0-1.341-.944,4.271,4.271,0,0,0-1.728-.345,4.112,4.112,0,0,0-3.058,1.289,4.088,4.088,0,0,0-.869,1.433,5.242,5.242,0,0,0-.3,1.8,5.349,5.349,0,0,0,.314,1.854,4.384,4.384,0,0,0,.869,1.455,3.907,3.907,0,0,0,1.332.952,4.424,4.424,0,0,0,3.436,0Z"
        transform="translate(101.266 -103.666)" fill="#fff" />
      <path id="Path_215" data-name="Path 215" d="M95.2,147.075l-1.886,5.091h3.729Z"
        transform="translate(77.199 -88.522)" fill="#fff" />
      <path id="Path_216" data-name="Path 216" d="M54.521,147.075l-1.886,5.091h3.729Z"
        transform="translate(21.829 -88.522)" fill="#fff" />
      <path id="Path_217" data-name="Path 217"
        d="M107.743,174.318a2.894,2.894,0,0,0-.567-1.039,1.206,1.206,0,0,0-.959-.423,1.233,1.233,0,0,0-.97.423,2.92,2.92,0,0,0-.583,1.039,6.038,6.038,0,0,0-.279,1.336c-.047.482-.073.919-.073,1.313s.026.852.073,1.339a6.038,6.038,0,0,0,.279,1.346,2.931,2.931,0,0,0,.583,1.041,1.241,1.241,0,0,0,.97.423,1.213,1.213,0,0,0,.959-.423,2.905,2.905,0,0,0,.567-1.041,6.47,6.47,0,0,0,.269-1.346c.047-.486.073-.933.073-1.339s-.026-.831-.073-1.313A6.473,6.473,0,0,0,107.743,174.318Z"
        transform="translate(92.172 -53.428)" fill="#fff" />
      <path id="Path_218" data-name="Path 218"
        d="M21.1,122.277V267.662H280.484V122.277Zm216.783,25.265h3.478l-3.058,3.015h-2.6Zm-14.328,4.189h3.6v14.833h-3.6Zm-13.6,0h11.962v3.058h-4.189v11.775H214.15V154.789h-4.191Zm2.076,36.849V191.7h-9.343V176.871h3.6V188.58Zm-6.6-26.918a2,2,0,0,0-.6-.534,4.819,4.819,0,0,0-.966-.442c-.385-.132-.819-.276-1.308-.43a12.165,12.165,0,0,1-1.393-.545,4.656,4.656,0,0,1-1.216-.805,3.738,3.738,0,0,1-.859-1.192,4.09,4.09,0,0,1-.324-1.71,4.2,4.2,0,0,1,.5-2.116,4.333,4.333,0,0,1,1.32-1.445,5.649,5.649,0,0,1,1.842-.826,8.255,8.255,0,0,1,2.075-.264,7.716,7.716,0,0,1,2.567.463,6.627,6.627,0,0,1,2.293,1.362l-2.283,2.408a3.207,3.207,0,0,0-1.2-.933,3.392,3.392,0,0,0-1.436-.347,4.2,4.2,0,0,0-.723.066,1.831,1.831,0,0,0-.659.238,1.64,1.64,0,0,0-.493.46,1.236,1.236,0,0,0-.2.723,1.183,1.183,0,0,0,.156.63,1.407,1.407,0,0,0,.463.439,4.188,4.188,0,0,0,.72.347c.281.1.6.212.944.321.5.17,1.025.357,1.57.557a5.871,5.871,0,0,1,1.488.807,4.206,4.206,0,0,1,1.11,1.247,3.573,3.573,0,0,1,.442,1.854,4.85,4.85,0,0,1-.472,2.21,4.414,4.414,0,0,1-1.268,1.539,5.407,5.407,0,0,1-1.82.9,7.659,7.659,0,0,1-2.118.3,8.706,8.706,0,0,1-3.077-.557,6.486,6.486,0,0,1-2.472-1.58l2.345-2.39a4.3,4.3,0,0,0,1.436,1.119,3.868,3.868,0,0,0,1.769.453,3.529,3.529,0,0,0,.777-.085,1.9,1.9,0,0,0,.659-.274,1.339,1.339,0,0,0,.451-.5,1.6,1.6,0,0,0,.168-.756A1.194,1.194,0,0,0,205.435,161.662Zm-30.351,18.266v-3.058h11.96v3.058h-4.189V191.7h-3.582V179.928Zm16.736-3.058H195.3l6.158,14.831h-3.981l-1.152-2.911h-5.74l-1.089,2.911h-3.9Zm-5.28-25.14h9.971v3.018h-6.517v2.807h6.16v2.869h-6.16v3.081h6.892v3.058H186.54Zm-16.181,4.17a7.157,7.157,0,0,1,1.707-2.463,7.543,7.543,0,0,1,2.555-1.558,9.008,9.008,0,0,1,3.164-.548,9.755,9.755,0,0,1,3.266.536A6.8,6.8,0,0,1,183.5,153.3l-2.262,2.578a3.93,3.93,0,0,0-1.381-1,4.712,4.712,0,0,0-1.948-.387,4.313,4.313,0,0,0-1.74.347,4.139,4.139,0,0,0-1.381.963,4.4,4.4,0,0,0-.911,1.466,5.121,5.121,0,0,0-.324,1.854,5.8,5.8,0,0,0,.293,1.887,4.035,4.035,0,0,0,.869,1.476,3.919,3.919,0,0,0,1.424.963,5.086,5.086,0,0,0,1.939.347,7.4,7.4,0,0,0,1.192-.094,4.51,4.51,0,0,0,1.048-.3v-2.7H177.49v-2.888h6.118v7.853a11.321,11.321,0,0,1-2.545.921,13.284,13.284,0,0,1-3.173.359,9.2,9.2,0,0,1-3.28-.567,7.574,7.574,0,0,1-2.576-1.591,7.275,7.275,0,0,1-1.686-2.463,8.716,8.716,0,0,1,.012-6.42Zm-.366,30.649h.061l-.085-9.679h3.478V191.7h-4.064l-5.969-9.7h-.064l.083,9.7h-3.476V176.871h4.085Zm-17.516-34.818h9.971v3.018h-6.515v2.807h6.16v2.869h-6.16v3.081h6.892v3.058H152.477ZM147.24,191.7V176.871h9.974v3.015H150.7v2.81h6.16v2.869H150.7v3.079h6.892V191.7Zm9.428,10.3v14.833h-3.6V202.006Zm-6.389,6.118v2.954h-5.74v5.761H141V202.006h9.761v3.058h-6.222v3.06Zm-9.7-16.422V176.871h3.606V191.7Zm-4.314-39.971h5.362a13.205,13.205,0,0,1,3.1.368,7.769,7.769,0,0,1,2.722,1.214,6.237,6.237,0,0,1,1.927,2.274,7.636,7.636,0,0,1,.734,3.518,7.3,7.3,0,0,1-.723,3.362,6.759,6.759,0,0,1-1.906,2.326,7.966,7.966,0,0,1-2.671,1.341,10.874,10.874,0,0,1-3.018.43h-5.53Zm-15.754,0h3.478l6.158,14.833h-3.979l-1.155-2.914h-5.738l-1.091,2.914h-3.9Zm.231,53.333v-3.058H132.7v3.058h-4.189v11.775h-3.582V205.064ZM96.108,151.731h5.1l3.379,9.511h.083l3.23-9.511h5.181v14.833h-3.518l.083-10.5h-.064l-3.854,10.5H103.21l-3.752-10.5H99.4l.083,10.5H96.108Zm9.3,56.1V210.7H99.251v3.081h6.892v3.058H95.794V202.006h9.971v3.018H99.251v2.807Zm-6.158-30.96,6.158,14.831H101.43l-1.155-2.911H94.538L93.447,191.7h-3.9l6.222-14.831Zm-15.86-25.14h9.974v3.018H86.847v2.807h6.16v2.869h-6.16v3.081H93.74v3.058H83.39Zm-13.594,0H81.759v3.058H77.57v11.775H73.988V154.789H69.8ZM43.33,156.425a1.376,1.376,0,0,0,.46.439,4.135,4.135,0,0,0,.723.347c.279.1.593.212.942.321q.754.255,1.573.557a5.9,5.9,0,0,1,1.485.807,4.247,4.247,0,0,1,1.112,1.247A3.6,3.6,0,0,1,50.064,162a4.881,4.881,0,0,1-.47,2.21,4.446,4.446,0,0,1-1.27,1.539,5.408,5.408,0,0,1-1.821.9,7.659,7.659,0,0,1-2.118.3,8.706,8.706,0,0,1-3.077-.557,6.5,6.5,0,0,1-2.472-1.58l2.345-2.39a4.3,4.3,0,0,0,1.436,1.119,3.868,3.868,0,0,0,1.769.453,3.513,3.513,0,0,0,.777-.085,1.9,1.9,0,0,0,.659-.274,1.339,1.339,0,0,0,.451-.5,1.573,1.573,0,0,0,.168-.756,1.194,1.194,0,0,0-.21-.711,2,2,0,0,0-.6-.534,4.856,4.856,0,0,0-.963-.442c-.387-.132-.822-.276-1.31-.43a12.337,12.337,0,0,1-1.393-.545,4.7,4.7,0,0,1-1.216-.805,3.7,3.7,0,0,1-.857-1.192,4.052,4.052,0,0,1-.326-1.71,4.2,4.2,0,0,1,.5-2.116,4.333,4.333,0,0,1,1.32-1.445,5.662,5.662,0,0,1,1.844-.826,8.223,8.223,0,0,1,2.073-.264,7.716,7.716,0,0,1,2.567.463,6.605,6.605,0,0,1,2.293,1.362l-2.283,2.408a3.207,3.207,0,0,0-1.2-.933,3.383,3.383,0,0,0-1.436-.347,4.194,4.194,0,0,0-.72.066,1.843,1.843,0,0,0-.661.238,1.641,1.641,0,0,0-.493.46,1.236,1.236,0,0,0-.2.723A1.162,1.162,0,0,0,43.33,156.425Zm9.1-4.694h3.606v14.833H52.43Zm5.315,100.477H54.657V239.495h3.088Zm.132-87.4,2.347-2.39a4.288,4.288,0,0,0,1.433,1.119,3.885,3.885,0,0,0,1.771.453,3.508,3.508,0,0,0,.774-.085,1.914,1.914,0,0,0,.661-.274,1.359,1.359,0,0,0,.451-.5,1.6,1.6,0,0,0,.168-.756,1.194,1.194,0,0,0-.21-.711,1.986,1.986,0,0,0-.6-.534,4.794,4.794,0,0,0-.963-.442q-.577-.2-1.31-.43a12.337,12.337,0,0,1-1.393-.545,4.682,4.682,0,0,1-1.214-.805,3.738,3.738,0,0,1-.859-1.192,4.052,4.052,0,0,1-.326-1.71,4.2,4.2,0,0,1,.505-2.116,4.327,4.327,0,0,1,1.318-1.445,5.662,5.662,0,0,1,1.844-.826,8.255,8.255,0,0,1,2.076-.264,7.7,7.7,0,0,1,2.564.463,6.616,6.616,0,0,1,2.3,1.362l-2.283,2.408a3.226,3.226,0,0,0-1.2-.933,3.391,3.391,0,0,0-1.436-.347,4.2,4.2,0,0,0-.723.066,1.843,1.843,0,0,0-.661.238,1.632,1.632,0,0,0-.491.46,1.236,1.236,0,0,0-.2.723,1.183,1.183,0,0,0,.156.63,1.422,1.422,0,0,0,.46.439,4.306,4.306,0,0,0,.723.347c.281.1.6.212.944.321q.751.255,1.57.557a5.911,5.911,0,0,1,1.488.807,4.207,4.207,0,0,1,1.11,1.247A3.6,3.6,0,0,1,69.1,162a4.85,4.85,0,0,1-.47,2.21,4.439,4.439,0,0,1-1.268,1.539,5.419,5.419,0,0,1-1.823.9,7.655,7.655,0,0,1-2.116.3,8.728,8.728,0,0,1-3.079-.557A6.523,6.523,0,0,1,57.877,164.8Zm14.052,87.4H68.446L63.329,243.9h-.054l.071,8.312h-2.98V239.495h3.5l5.1,8.295h.052l-.071-8.295h2.98Zm11.655-10.09H79.993v10.09h-3.07v-10.09H73.332v-2.623H83.584Zm10.269,10.09H84.984V239.495h8.545v2.586H87.947v2.408h5.277v2.458H87.947v2.64h5.905Zm-2.019-35.633a7.913,7.913,0,0,1-3.329.664,8.617,8.617,0,0,1-3.173-.569,7.305,7.305,0,0,1-4.2-4.083,8.706,8.706,0,0,1,.009-6.411,7.222,7.222,0,0,1,1.707-2.463,7.553,7.553,0,0,1,2.557-1.558,9.118,9.118,0,0,1,6.253.009,5.926,5.926,0,0,1,2.46,1.622l-2.43,2.432a3,3,0,0,0-1.32-1.027,4.351,4.351,0,0,0-1.674-.335,4.254,4.254,0,0,0-1.728.345,4.064,4.064,0,0,0-1.353.954,4.382,4.382,0,0,0-.878,1.436,5.039,5.039,0,0,0-.314,1.811,5.2,5.2,0,0,0,.314,1.844,4.3,4.3,0,0,0,.869,1.436,3.907,3.907,0,0,0,1.329.93,4.215,4.215,0,0,0,1.7.335,3.949,3.949,0,0,0,1.863-.418,3.6,3.6,0,0,0,1.28-1.091l2.491,2.349A7.024,7.024,0,0,1,91.834,216.575Zm4.64,36.568-2.028-.666,5.549-13.952,2.028.7Zm9.948-.935h-3.088V239.495h3.088Zm.222-75.337h5.1l3.377,9.509h.085l3.228-9.509h5.183V191.7h-3.521l.085-10.493h-.064L116.258,191.7h-2.512L110,181.208h-.064l.085,10.493h-3.374Zm13.995,39.968H116.45l-3.221-5.887h-1.221v5.887h-3.5V202.006h5.657a9.99,9.99,0,0,1,2.083.22,5.464,5.464,0,0,1,1.823.746,3.843,3.843,0,0,1,1.289,1.384,4.312,4.312,0,0,1,.482,2.135,3.93,3.93,0,0,1-.817,2.534,4.453,4.453,0,0,1-2.262,1.466Zm-8.786,26.679a1.223,1.223,0,0,0,.4.378,3.52,3.52,0,0,0,.619.3c.238.09.508.182.808.279.432.142.881.3,1.346.475a5.088,5.088,0,0,1,1.277.692,3.618,3.618,0,0,1,.949,1.067,3.069,3.069,0,0,1,.378,1.589,4.159,4.159,0,0,1-.4,1.9,3.751,3.751,0,0,1-1.086,1.318,4.579,4.579,0,0,1-1.561.772,6.5,6.5,0,0,1-1.816.253,7.512,7.512,0,0,1-2.64-.475A5.608,5.608,0,0,1,108,250.7l2.012-2.047a3.752,3.752,0,0,0,1.23.963,3.364,3.364,0,0,0,1.516.385,2.966,2.966,0,0,0,.666-.073,1.615,1.615,0,0,0,.564-.231,1.181,1.181,0,0,0,.387-.432,1.368,1.368,0,0,0,.144-.645,1.02,1.02,0,0,0-.182-.612,1.739,1.739,0,0,0-.51-.458,4.181,4.181,0,0,0-.826-.378q-.5-.17-1.122-.368a10.786,10.786,0,0,1-1.195-.465,3.984,3.984,0,0,1-1.041-.692,3.226,3.226,0,0,1-.737-1.025,3.453,3.453,0,0,1-.279-1.464,3.576,3.576,0,0,1,.432-1.811,3.75,3.75,0,0,1,1.131-1.24,4.828,4.828,0,0,1,1.58-.711,7.22,7.22,0,0,1,1.778-.222,6.581,6.581,0,0,1,2.2.394,5.648,5.648,0,0,1,1.965,1.166l-1.957,2.066a2.745,2.745,0,0,0-1.032-.8,2.9,2.9,0,0,0-1.23-.3,3.686,3.686,0,0,0-.619.052,1.642,1.642,0,0,0-.567.208,1.432,1.432,0,0,0-.423.394,1.065,1.065,0,0,0-.17.621A1,1,0,0,0,111.852,243.518Zm20.533,5.034a6.274,6.274,0,0,1-1.445,2.139,6.46,6.46,0,0,1-2.2,1.374,7.759,7.759,0,0,1-2.765.484,7.679,7.679,0,0,1-2.756-.484,6.442,6.442,0,0,1-2.191-1.374,6.274,6.274,0,0,1-1.445-2.139,7.536,7.536,0,0,1,0-5.511,6.026,6.026,0,0,1,1.445-2.09,6.38,6.38,0,0,1,2.191-1.332,7.886,7.886,0,0,1,2.756-.465,7.968,7.968,0,0,1,2.765.465,6.4,6.4,0,0,1,2.2,1.332,6.026,6.026,0,0,1,1.445,2.09,7.568,7.568,0,0,1,0,5.511Zm5.556-31.714h-3.6V202.006h3.6Zm-.21-27.411a3.794,3.794,0,0,1-1.277,1.332,5.577,5.577,0,0,1-1.811.723,9.873,9.873,0,0,1-2.085.22H126.65V176.871h5.908a9.126,9.126,0,0,1,1.759.177,5.268,5.268,0,0,1,1.634.609,3.261,3.261,0,0,1,1.655,3.025,3.083,3.083,0,0,1-.671,2.042,3.746,3.746,0,0,1-1.759,1.164v.042a4.025,4.025,0,0,1,1.183.387,3.352,3.352,0,0,1,1.613,1.747,3.462,3.462,0,0,1,.241,1.322A3.989,3.989,0,0,1,137.731,189.428Zm8.463,62.78h-3v-9.336l-2.371,1.83-1.561-2.137,4.182-3.07h2.748Zm14.507-2.479h-1.74v2.479h-2.819v-2.479h-5.981V247.2l5.173-7.7h3.608v7.792H160.7Zm-1.058-37.142a8.706,8.706,0,0,1,.009-6.411,7.222,7.222,0,0,1,1.707-2.463,7.565,7.565,0,0,1,2.555-1.558,9.125,9.125,0,0,1,6.255.009,5.926,5.926,0,0,1,2.46,1.622l-2.43,2.432a3,3,0,0,0-1.32-1.027,4.351,4.351,0,0,0-1.674-.335,4.254,4.254,0,0,0-1.728.345,4.064,4.064,0,0,0-1.353.954,4.382,4.382,0,0,0-.878,1.436,5.039,5.039,0,0,0-.314,1.811,5.2,5.2,0,0,0,.314,1.844,4.3,4.3,0,0,0,.869,1.436,3.906,3.906,0,0,0,1.329.93,4.214,4.214,0,0,0,1.7.335,3.949,3.949,0,0,0,1.863-.418,3.6,3.6,0,0,0,1.28-1.091l2.491,2.349a7.024,7.024,0,0,1-2.43,1.787,7.916,7.916,0,0,1-3.332.664,8.613,8.613,0,0,1-3.171-.569,7.305,7.305,0,0,1-4.2-4.083Zm12.172,35.8a6.568,6.568,0,0,1-.862,2.146,4.29,4.29,0,0,1-3.825,2.021,4.354,4.354,0,0,1-3.851-2.021,6.477,6.477,0,0,1-.871-2.146,12.337,12.337,0,0,1,0-5.126,6.3,6.3,0,0,1,.871-2.118,4.491,4.491,0,0,1,1.554-1.445,4.6,4.6,0,0,1,2.3-.538,4.553,4.553,0,0,1,2.29.538,4.433,4.433,0,0,1,1.535,1.445,6.39,6.39,0,0,1,.862,2.118,12.337,12.337,0,0,1,0,5.126Zm11.6,0a6.568,6.568,0,0,1-.862,2.146,4.29,4.29,0,0,1-3.825,2.021,4.346,4.346,0,0,1-3.851-2.021,6.428,6.428,0,0,1-.871-2.146,12.337,12.337,0,0,1,0-5.126,6.255,6.255,0,0,1,.871-2.118,4.5,4.5,0,0,1,1.551-1.445,4.608,4.608,0,0,1,2.3-.538,4.559,4.559,0,0,1,2.29.538,4.433,4.433,0,0,1,1.535,1.445,6.39,6.39,0,0,1,.862,2.118,12.337,12.337,0,0,1,0,5.126Zm-.458-34.457h-5.74l-1.089,2.914h-3.9l6.222-14.833h3.476l6.16,14.833H184.11Zm9.631,38.282h-3v-9.336l-2.368,1.83-1.563-2.137,4.182-3.07h2.748Zm8.118-.923a1.7,1.7,0,0,1-.935.895,1.671,1.671,0,0,1-.663.137,1.835,1.835,0,0,1-.682-.128,1.666,1.666,0,0,1-.567-.359,1.782,1.782,0,0,1-.385-.538,1.509,1.509,0,0,1-.144-.664,1.588,1.588,0,0,1,.144-.673,1.767,1.767,0,0,1,.385-.548,1.807,1.807,0,0,1,.567-.368,1.75,1.75,0,0,1,.682-.135,1.709,1.709,0,0,1,.663.135,1.767,1.767,0,0,1,.557.359,1.74,1.74,0,0,1,.378.538,1.675,1.675,0,0,1,0,1.348Zm0-5.766a1.916,1.916,0,0,1-.378.55,1.746,1.746,0,0,1-1.221.5,1.834,1.834,0,0,1-.682-.125,1.667,1.667,0,0,1-.567-.359,1.811,1.811,0,0,1-.385-.538,1.523,1.523,0,0,1-.144-.663,1.591,1.591,0,0,1,.144-.675,1.8,1.8,0,0,1,.385-.548,1.842,1.842,0,0,1,.567-.366,1.752,1.752,0,0,1,.682-.137,1.712,1.712,0,0,1,.663.137,1.809,1.809,0,0,1,.557.359,1.768,1.768,0,0,1,.378.538,1.577,1.577,0,0,1,.142.654A1.607,1.607,0,0,1,200.707,245.518Zm-.163-30.45a7.966,7.966,0,0,1-2.671,1.341,10.862,10.862,0,0,1-3.018.43h-5.53V202.006h5.362a13.191,13.191,0,0,1,3.1.368,7.8,7.8,0,0,1,2.725,1.214,6.254,6.254,0,0,1,1.924,2.274,7.636,7.636,0,0,1,.734,3.518,7.305,7.305,0,0,1-.723,3.362A6.758,6.758,0,0,1,200.545,215.068Zm11.941,37.14h-9.195V249.7l4.956-4.484A4.657,4.657,0,0,0,209,244.3a1.952,1.952,0,0,0,.288-1.041,1.48,1.48,0,0,0-.43-1.1,1.736,1.736,0,0,0-2.38.109,2.392,2.392,0,0,0-.564,1.391l-2.893-.394a4.47,4.47,0,0,1,1.6-3.018,4.631,4.631,0,0,1,1.48-.815,5.538,5.538,0,0,1,1.769-.279,6.338,6.338,0,0,1,1.707.231,4.43,4.43,0,0,1,1.471.72,3.543,3.543,0,0,1,1.032,1.221,3.633,3.633,0,0,1,.387,1.724,3.917,3.917,0,0,1-.179,1.23,3.993,3.993,0,0,1-.493,1.013,6.011,6.011,0,0,1-.718.874q-.4.4-.836.8l-2.944,2.623h5.19ZM209.7,216.669a7.5,7.5,0,0,1-2.557-1.6,7.309,7.309,0,0,1-1.686-2.493,8.825,8.825,0,0,1,0-6.432,7.042,7.042,0,0,1,1.686-2.439,7.492,7.492,0,0,1,2.557-1.549,9.2,9.2,0,0,1,3.214-.548,9.309,9.309,0,0,1,3.228.548,7.467,7.467,0,0,1,2.567,1.549,7.074,7.074,0,0,1,1.686,2.439,8.825,8.825,0,0,1,0,6.432,7.342,7.342,0,0,1-1.686,2.493,7.476,7.476,0,0,1-2.567,1.6,8.946,8.946,0,0,1-3.228.569A8.842,8.842,0,0,1,209.7,216.669Zm14.477,31.714a6.571,6.571,0,0,1-.864,2.146,4.29,4.29,0,0,1-3.823,2.021,4.354,4.354,0,0,1-3.854-2.021,6.425,6.425,0,0,1-.869-2.146,12.231,12.231,0,0,1,0-5.126,6.252,6.252,0,0,1,.869-2.118,4.491,4.491,0,0,1,1.554-1.445,4.6,4.6,0,0,1,2.3-.538,4.543,4.543,0,0,1,2.288.538,4.433,4.433,0,0,1,1.535,1.445,6.393,6.393,0,0,1,.864,2.118,12.444,12.444,0,0,1,0,5.126Zm9.173,3.825h-3v-9.336l-2.371,1.83-1.561-2.137,4.182-3.07h2.748Zm-1.53-87.415a7.276,7.276,0,0,1-1.686-2.493,8.825,8.825,0,0,1,0-6.432,7.01,7.01,0,0,1,1.686-2.439,7.482,7.482,0,0,1,2.555-1.549,9.742,9.742,0,0,1,6.441,0,7.445,7.445,0,0,1,2.567,1.549,7.048,7.048,0,0,1,1.688,2.439,8.857,8.857,0,0,1,0,6.432,7.315,7.315,0,0,1-1.688,2.493,7.453,7.453,0,0,1-2.567,1.6,9.4,9.4,0,0,1-6.441,0A7.492,7.492,0,0,1,231.819,164.793ZM246.9,250.026a4,4,0,0,1-1.1,1.41,4.817,4.817,0,0,1-1.573.836,5.937,5.937,0,0,1-1.813.279,6.057,6.057,0,0,1-1.643-.224,5.19,5.19,0,0,1-1.417-.64,4.264,4.264,0,0,1-1.1-1.013,4.052,4.052,0,0,1-.673-1.355l2.746-.845a2.128,2.128,0,0,0,.746,1.1,2.159,2.159,0,0,0,2.637-.035,1.686,1.686,0,0,0,.567-1.384,1.735,1.735,0,0,0-.234-.933,1.827,1.827,0,0,0-.6-.6,2.623,2.623,0,0,0-.836-.314,5.009,5.009,0,0,0-.933-.09,9.112,9.112,0,0,0-1.554.153,9.212,9.212,0,0,0-1.554.4l.3-7.273h7.792v2.586h-5.117l-.109,2.012a3.838,3.838,0,0,1,.638-.1c.236-.017.446-.026.638-.026a6.271,6.271,0,0,1,1.8.25,4.141,4.141,0,0,1,1.464.765,3.627,3.627,0,0,1,.978,1.266,4.062,4.062,0,0,1,.359,1.759A4.578,4.578,0,0,1,246.9,250.026Zm14.628-83.462h-4.061l-5.971-9.7h-.064l.085,9.7h-3.478V151.731h4.085l5.95,9.679h.061l-.083-9.679h3.476Z"
        transform="translate(-21.099 -122.277)" fill="#fff" />
    </g>
    <g id="Group_42" data-name="Group 42" transform="translate(83.079 445.628)">
      <path id="Path_219" data-name="Path 219"
        d="M46.668,192.643a5.191,5.191,0,0,0-1.75-1.528,5.367,5.367,0,0,0-2.583-.576,5.618,5.618,0,0,0-1.573.234,4.567,4.567,0,0,0-1.452.73,3.7,3.7,0,0,0-1.053,1.23,3.627,3.627,0,0,0-.4,1.75,3.235,3.235,0,0,0,.385,1.665,3.648,3.648,0,0,0,1.02,1.11,5.852,5.852,0,0,0,1.45.758q.815.3,1.7.6,1.094.354,2.205.77a7.912,7.912,0,0,1,2,1.084,5.23,5.23,0,0,1,1.452,1.691,5.373,5.373,0,0,1,.562,2.595,5.792,5.792,0,0,1-.6,2.718,5.718,5.718,0,0,1-1.558,1.882,6.45,6.45,0,0,1-2.189,1.1,8.857,8.857,0,0,1-2.479.359,9.592,9.592,0,0,1-1.9-.194,8.609,8.609,0,0,1-1.809-.581,7.207,7.207,0,0,1-1.6-.98,6.952,6.952,0,0,1-1.306-1.365l1.839-1.362a5.628,5.628,0,0,0,1.915,1.884,5.423,5.423,0,0,0,2.892.756,5.611,5.611,0,0,0,1.632-.253,4.564,4.564,0,0,0,1.5-.77,4.316,4.316,0,0,0,1.1-1.277,3.511,3.511,0,0,0,.43-1.764,3.561,3.561,0,0,0-.43-1.828,3.814,3.814,0,0,0-1.143-1.214,6.936,6.936,0,0,0-1.632-.817c-.614-.217-1.259-.437-1.929-.654-.694-.215-1.377-.465-2.047-.741a6.907,6.907,0,0,1-1.811-1.084,5.048,5.048,0,0,1-1.289-1.646,6.007,6.007,0,0,1,.118-5.015,5.467,5.467,0,0,1,1.587-1.811,6.7,6.7,0,0,1,2.165-1.037,8.825,8.825,0,0,1,2.345-.326,8.079,8.079,0,0,1,3.65.756,6.265,6.265,0,0,1,2.286,1.794Z"
        transform="translate(-35.185 -188.728)" fill="#fff" />
      <path id="Path_220" data-name="Path 220"
        d="M59.41,193.058a7.678,7.678,0,0,0-2.612-1.795,8.878,8.878,0,0,0-3.471-.638,8.642,8.642,0,0,0-3.636.739,8.269,8.269,0,0,0-2.746,2,8.881,8.881,0,0,0-1.733,2.916,10.335,10.335,0,0,0,0,6.992,8.755,8.755,0,0,0,1.733,2.9,8.354,8.354,0,0,0,2.746,1.983,8.643,8.643,0,0,0,3.636.741,13.063,13.063,0,0,0,3.263-.385,8.354,8.354,0,0,0,2.4-.98v-6.38H54.1v-1.9h7.034v9.487a13.665,13.665,0,0,1-3.709,1.549,16.774,16.774,0,0,1-4.125.508,11.447,11.447,0,0,1-4.392-.833,10.334,10.334,0,0,1-3.471-2.3,10.5,10.5,0,0,1-2.271-3.485,11.7,11.7,0,0,1-.815-4.42,11.489,11.489,0,0,1,.831-4.423,10.4,10.4,0,0,1,5.771-5.785,11.209,11.209,0,0,1,4.347-.831,11.747,11.747,0,0,1,4.392.751,9.437,9.437,0,0,1,3.2,2.1Z"
        transform="translate(-25.435 -188.728)" fill="#fff" />
      <path id="Path_221" data-name="Path 221"
        d="M53.9,209.962H51.559l9.081-21.008h2.076l9.02,21.008H69.363l-2.314-5.521H56.189Zm3.086-7.478h9.258l-4.63-11.157Z"
        transform="translate(-12.896 -188.42)" fill="#fff" />
      <path id="Path_222" data-name="Path 222" d="M67.48,196.137H60.833v-1.691H67.48Z"
        transform="translate(-0.272 -180.945)" fill="#fff" />
      <path id="Path_223" data-name="Path 223"
        d="M71.851,188.728a5.393,5.393,0,0,1,3.27.963,7.067,7.067,0,0,1,2.118,2.524,12.271,12.271,0,0,1,1.138,3.544,23.89,23.89,0,0,1,.342,4.035,23.64,23.64,0,0,1-.342,4.021,12.294,12.294,0,0,1-1.138,3.53,6.931,6.931,0,0,1-2.118,2.508,5.452,5.452,0,0,1-3.27.952,5.511,5.511,0,0,1-3.3-.952,6.925,6.925,0,0,1-2.116-2.508,11.934,11.934,0,0,1-1.126-3.53,24.643,24.643,0,0,1-.326-4.021,24.9,24.9,0,0,1,.326-4.035,11.915,11.915,0,0,1,1.126-3.544,7.062,7.062,0,0,1,2.116-2.524A5.452,5.452,0,0,1,71.851,188.728Zm0,1.811a3.276,3.276,0,0,0-2.323.859,5.982,5.982,0,0,0-1.457,2.2,11.945,11.945,0,0,0-.746,2.98,26.032,26.032,0,0,0-.208,3.221,25.627,25.627,0,0,0,.208,3.2,11.764,11.764,0,0,0,.746,2.954,5.857,5.857,0,0,0,1.457,2.165,3.308,3.308,0,0,0,2.323.845,3.258,3.258,0,0,0,2.29-.845,5.861,5.861,0,0,0,1.459-2.165A12.288,12.288,0,0,0,76.359,203a23.619,23.619,0,0,0,.224-3.2,23.992,23.992,0,0,0-.224-3.221,12.477,12.477,0,0,0-.758-2.98,5.986,5.986,0,0,0-1.459-2.2A3.227,3.227,0,0,0,71.851,190.539Z"
        transform="translate(5.372 -188.728)" fill="#fff" />
      <path id="Path_224" data-name="Path 224"
        d="M79.138,188.728a5.4,5.4,0,0,1,3.273.963,7.062,7.062,0,0,1,2.116,2.524,12.2,12.2,0,0,1,1.14,3.544,23.887,23.887,0,0,1,.34,4.035,23.638,23.638,0,0,1-.34,4.021,12.224,12.224,0,0,1-1.14,3.53,6.926,6.926,0,0,1-2.116,2.508,6.152,6.152,0,0,1-6.574,0,6.931,6.931,0,0,1-2.118-2.508,12,12,0,0,1-1.124-3.53,24.642,24.642,0,0,1-.326-4.021,24.9,24.9,0,0,1,.326-4.035,11.982,11.982,0,0,1,1.124-3.544,7.068,7.068,0,0,1,2.118-2.524A5.444,5.444,0,0,1,79.138,188.728Zm0,1.811a3.271,3.271,0,0,0-2.321.859,5.987,5.987,0,0,0-1.459,2.2,12.049,12.049,0,0,0-.744,2.98,25.584,25.584,0,0,0-.208,3.221,25.188,25.188,0,0,0,.208,3.2,11.866,11.866,0,0,0,.744,2.954,5.861,5.861,0,0,0,1.459,2.165,3.3,3.3,0,0,0,2.321.845,3.268,3.268,0,0,0,2.293-.845,5.919,5.919,0,0,0,1.459-2.165A12.4,12.4,0,0,0,83.648,203a23.619,23.619,0,0,0,.224-3.2,23.992,23.992,0,0,0-.224-3.221,12.59,12.59,0,0,0-.758-2.98,6.046,6.046,0,0,0-1.459-2.2A3.237,3.237,0,0,0,79.138,190.539Z"
        transform="translate(15.294 -188.728)" fill="#fff" />
      <path id="Path_225" data-name="Path 225" d="M87.5,209.962H85.366V191.594l-3.8,3.235-1.306-1.483,5.341-4.392h1.9Z"
        transform="translate(26.173 -188.42)" fill="#fff" />
      <path id="Path_226" data-name="Path 226" d="M87.9,210.805l-1.721-.567,8.992-21.511,1.691.593Z"
        transform="translate(34.23 -188.728)" fill="#fff" />
      <path id="Path_227" data-name="Path 227"
        d="M104.82,210.269H91.408v-2.224l8.6-8.7c.319-.316.628-.656.935-1.025a8.77,8.77,0,0,0,.817-1.14,5.764,5.764,0,0,0,.564-1.261,4.667,4.667,0,0,0,.208-1.379,4.1,4.1,0,0,0-.328-1.662,3.641,3.641,0,0,0-.9-1.261,4.1,4.1,0,0,0-1.334-.8,4.5,4.5,0,0,0-1.589-.281,4.075,4.075,0,0,0-2.848,1.051,4.816,4.816,0,0,0-1.485,2.687l-2.106-.416a6.084,6.084,0,0,1,.786-2.047,6.314,6.314,0,0,1,1.424-1.634,6.6,6.6,0,0,1,1.915-1.067,6.759,6.759,0,0,1,2.314-.385,7.826,7.826,0,0,1,2.418.368,5.8,5.8,0,0,1,2,1.1,5.337,5.337,0,0,1,1.367,1.809,5.828,5.828,0,0,1,.51,2.508,6.017,6.017,0,0,1-.281,1.87,8.143,8.143,0,0,1-.741,1.632,9.526,9.526,0,0,1-1.084,1.469c-.416.465-.85.923-1.306,1.381l-7.568,7.5H104.82Z"
        transform="translate(41.347 -188.728)" fill="#fff" />
      <path id="Path_228" data-name="Path 228"
        d="M105.654,188.728a5.4,5.4,0,0,1,3.273.963,7.086,7.086,0,0,1,2.116,2.524,12.2,12.2,0,0,1,1.138,3.544,23.646,23.646,0,0,1,.342,4.035,23.4,23.4,0,0,1-.342,4.021,12.222,12.222,0,0,1-1.138,3.53,6.949,6.949,0,0,1-2.116,2.508,5.454,5.454,0,0,1-3.273.952,5.511,5.511,0,0,1-3.3-.952,6.949,6.949,0,0,1-2.116-2.508,11.934,11.934,0,0,1-1.126-3.53,24.907,24.907,0,0,1-.323-4.021,25.17,25.17,0,0,1,.323-4.035,11.915,11.915,0,0,1,1.126-3.544,7.086,7.086,0,0,1,2.116-2.524A5.452,5.452,0,0,1,105.654,188.728Zm0,1.811a3.276,3.276,0,0,0-2.323.859,6.012,6.012,0,0,0-1.457,2.2,11.945,11.945,0,0,0-.746,2.98,26.035,26.035,0,0,0-.208,3.221,25.63,25.63,0,0,0,.208,3.2,11.764,11.764,0,0,0,.746,2.954,5.885,5.885,0,0,0,1.457,2.165,3.308,3.308,0,0,0,2.323.845,3.268,3.268,0,0,0,2.293-.845,5.885,5.885,0,0,0,1.457-2.165,12.289,12.289,0,0,0,.76-2.954,23.611,23.611,0,0,0,.222-3.2,23.982,23.982,0,0,0-.222-3.221,12.477,12.477,0,0,0-.76-2.98,6.011,6.011,0,0,0-1.457-2.2A3.237,3.237,0,0,0,105.654,190.539Z"
        transform="translate(51.388 -188.728)" fill="#fff" />
      <path id="Path_229" data-name="Path 229"
        d="M114.016,209.962H111.88V191.594l-3.8,3.235-1.306-1.483,5.341-4.392h1.9Z"
        transform="translate(62.267 -188.42)" fill="#fff" />
      <path id="Path_230" data-name="Path 230"
        d="M117.571,198.123l.059.059a3.606,3.606,0,0,1,1.336-.562,7.008,7.008,0,0,1,1.66-.208,6.649,6.649,0,0,1,2.536.475A6.166,6.166,0,0,1,125.2,199.2a6.045,6.045,0,0,1,1.351,2.05,6.857,6.857,0,0,1,.489,2.626,6.992,6.992,0,0,1-.5,2.7,5.9,5.9,0,0,1-1.424,2.078,6.743,6.743,0,0,1-2.168,1.351,7.83,7.83,0,0,1-5.459,0,6.707,6.707,0,0,1-2.165-1.351,5.868,5.868,0,0,1-1.424-2.078,6.949,6.949,0,0,1-.505-2.7,8.01,8.01,0,0,1,.562-3.027,18.8,18.8,0,0,1,1.336-2.671l5.728-9.228h2.463Zm-2.047,5.757a5.236,5.236,0,0,0,.34,1.913,4.408,4.408,0,0,0,.966,1.514,4.566,4.566,0,0,0,1.483,1.011,5.053,5.053,0,0,0,3.8,0,4.592,4.592,0,0,0,1.483-1.011,4.437,4.437,0,0,0,.963-1.514,5.236,5.236,0,0,0,.342-1.913,5.355,5.355,0,0,0-.326-1.884,4.442,4.442,0,0,0-.935-1.514,4.214,4.214,0,0,0-1.485-.994,5.474,5.474,0,0,0-3.887,0,4.2,4.2,0,0,0-1.483.994A4.371,4.371,0,0,0,115.85,202,5.3,5.3,0,0,0,115.524,203.879Z"
        transform="translate(71.265 -188.42)" fill="#fff" />
    </g>
  </g>
</svg>