<svg id="Group_37" data-name="Group 37" xmlns="http://www.w3.org/2000/svg" viewBox="0 0 267.423 430.696">
  <path id="Path_68" data-name="Path 68"
    d="M273.24,455.518H32.807a13.509,13.509,0,0,1-13.5-13.493V38.317a13.513,13.513,0,0,1,13.5-13.495H273.24a13.513,13.513,0,0,1,13.493,13.495V442.026a13.51,13.51,0,0,1-13.493,13.493M32.807,29.04a9.288,9.288,0,0,0-9.282,9.277V442.026a9.287,9.287,0,0,0,9.282,9.275H273.24a9.286,9.286,0,0,0,9.275-9.275V38.317a9.286,9.286,0,0,0-9.275-9.277Z"
    transform="translate(-19.31 -24.822)" fill="#fff" />
  <path id="Path_69" data-name="Path 69"
    d="M54.592,56.8a57.426,57.426,0,0,0-1.04,32.228,57.021,57.021,0,0,1,9.572-1.363A236.194,236.194,0,0,1,64.2,55.691,78.63,78.63,0,0,0,54.592,56.8"
    transform="translate(24.709 17.086)" fill="#fff" />
  <path id="Path_70" data-name="Path 70"
    d="M52.906,71.95A57.371,57.371,0,0,0,63.428,91.016c-.863-6.663-1.452-13.471-1.763-20.3a53.136,53.136,0,0,0-8.758,1.235"
    transform="translate(26.3 37.482)" fill="#fff" />
  <path id="Path_71" data-name="Path 71"
    d="M87.084,76.61a81.553,81.553,0,0,1,15.949,19.269,81.57,81.57,0,0,0,14.848-21.527,84.1,84.1,0,0,0-13.627-17.9Z"
    transform="translate(72.7 18.123)" fill="#fff" />
  <path id="Path_72" data-name="Path 72"
    d="M72.724,71.67a104.792,104.792,0,0,1,10.685,4.437L103.842,55.7q-1.171-.707-2.358-1.391A115.133,115.133,0,0,0,82.23,45.515c-2.869,7.561-6.068,16.35-9.506,26.155"
    transform="translate(53.205 3.271)" fill="#fff" />
  <path id="Path_73" data-name="Path 73"
    d="M63.518,100.5a57.7,57.7,0,0,0,7.417,3.746c5.229-5.281,10.47-11.029,15.6-17.1L72.26,72.885c-3.152,9.683-6.087,18.962-8.742,27.617"
    transform="translate(40.707 40.428)" fill="#fff" />
  <path id="Path_74" data-name="Path 74" d="M72.353,58.008l5.17,7.523,3.843-3.838c-2.959-1.382-5.979-2.615-9.013-3.685"
    transform="translate(52.701 20.231)" fill="#fff" />
  <path id="Path_75" data-name="Path 75"
    d="M77.37,90.407a56.7,56.7,0,0,1,12.314,14.466A144.665,144.665,0,0,0,113.84,85.289a76.6,76.6,0,0,0-15.751-19.2Z"
    transform="translate(59.512 31.205)" fill="#fff" />
  <path id="Path_76" data-name="Path 76"
    d="M65.191,46.949A56.592,56.592,0,0,0,53.507,65.044a84.2,84.2,0,0,1,8.667-.875,158.93,158.93,0,0,1,3.018-17.22"
    transform="translate(27.116 5.218)" fill="#fff" />
  <path id="Path_77" data-name="Path 77"
    d="M94.542,84.081A63.4,63.4,0,0,1,97.8,91.512a56.943,56.943,0,0,0,9.532-24.184A92.2,92.2,0,0,1,94.542,84.081"
    transform="translate(82.825 32.884)" fill="#fff" />
  <path id="Path_78" data-name="Path 78"
    d="M75.321,92.893a57.077,57.077,0,0,0,18.1-2.414,41.156,41.156,0,0,0-2.428-6.033,167.015,167.015,0,0,1-15.669,8.447"
    transform="translate(56.731 56.124)" fill="#fff" />
  <path id="Path_79" data-name="Path 79"
    d="M83.207,94.769a43.875,43.875,0,0,1,2.749,6.8,56.825,56.825,0,0,0,24.877-17.981,60.476,60.476,0,0,0-3.336-8.091,145.775,145.775,0,0,1-24.29,19.276"
    transform="translate(67.437 43.969)" fill="#fff" />
  <path id="Path_80" data-name="Path 80"
    d="M95.228,59.192a88.124,88.124,0,0,1,11.538,14.322,57.543,57.543,0,0,0-5.991-20.832Z"
    transform="translate(83.756 13.002)" fill="#fff" />
  <path id="Path_81" data-name="Path 81"
    d="M67.852,99.036a57.383,57.383,0,0,0,11.878,2.822A168.015,168.015,0,0,0,99.708,91.214a54.762,54.762,0,0,0-11.647-13.7l-4.942,5.8S72.834,94.1,67.852,99.036"
    transform="translate(46.591 46.716)" fill="#fff" />
  <path id="Path_82" data-name="Path 82"
    d="M65.688,44.873a110.713,110.713,0,0,1,23.89,4.769c.059-.16.118-.318.174-.476,1.384-3.572,2.674-6.788,3.852-9.579-1.214-.075-2.424-.12-3.624-.12a57.442,57.442,0,0,0-24.293,5.406"
    transform="translate(43.653 -4.94)" fill="#fff" />
  <path id="Path_83" data-name="Path 83"
    d="M87.836,73.821c.269.083.538.163.806.248,3.371-9.815,6.535-18.618,9.4-26.2A107.892,107.892,0,0,0,70,42.958a56.324,56.324,0,0,0-7.12,5.116A149.172,149.172,0,0,0,58.609,69.49a94.266,94.266,0,0,1,10.225.476l7.65-12.66Z"
    transform="translate(34.042 -0.201)" fill="#fff" />
  <path id="Path_84" data-name="Path 84"
    d="M59.954,94.739l.111.12a57.155,57.155,0,0,0,8.664,7.113c2.652-9.077,5.55-18.6,8.624-28.35a64.94,64.94,0,0,0-19.441-2.945c.3,8.174.985,16.265,2.042,24.062"
    transform="translate(33.096 37.43)" fill="#fff" />
  <path id="Path_85" data-name="Path 85"
    d="M77.239,50.475a116.949,116.949,0,0,1,19.6,8.957c1.068.618,2.129,1.252,3.173,1.9l9.77-9.756A56.71,56.71,0,0,0,81.57,39.67c-1.221,2.89-2.622,6.389-4.18,10.418Z"
    transform="translate(59.335 -4.664)" fill="#fff" />
  <path id="Path_86" data-name="Path 86"
    d="M58.3,87.636a67.053,67.053,0,0,1,14.655,1.65l-15.016-15q-.194,6.578-.038,13.353l.4,0m.943-31.988c-.613,5.432-1.023,11.029-1.24,16.755L67.94,55.959c-2.919-.245-5.835-.347-8.692-.311"
    transform="translate(32.994 17.018)" fill="#fff" />
  <path id="Path_87" data-name="Path 87"
    d="M170.177,70.844a63.578,63.578,0,1,1-13.108-15.572l3.869-3.833A68.971,68.971,0,1,0,173.876,66.5Z"
    transform="translate(17.922 -11.732)" fill="#fff" />
  <path id="Path_88" data-name="Path 88"
    d="M60.889,98.172l31.316,31.29L165.628,42.6l-5.738-5.745L92.205,103.821,73.722,76.933Z"
    transform="translate(37.138 -8.485)" fill="#fff" />
  <path id="Path_89" data-name="Path 89"
    d="M46.735,102.254h6.979v25.064H46.735Zm10.623,0h6.488l10.336,13.254V102.254h6.835v25.064h-6.1L64.191,113.571v13.747H57.358Zm34.815,6.09H84.655v-6.09h21.982v6.09H99.119v18.974H92.173Zm18.106-6.09h21.3l-1.184,5.906H117.112v3.8h10.843v5.481H117.112V121.4h13.464l1.188,5.913H110.279Zm74.562,12.46a13.068,13.068,0,1,1-13.066-13.087,13.078,13.078,0,0,1,13.066,13.087m-13.066-6.644a6.645,6.645,0,1,0,6.639,6.644,6.643,6.643,0,0,0-6.639-6.644M157.29,122.129a13.086,13.086,0,1,1-.189-15.1l-5.1,3.942a6.641,6.641,0,1,0,.047,7.424Z"
    transform="translate(17.922 79.449)" fill="#fff" />
  <g id="Group_35" data-name="Group 35" transform="translate(4.218 229.76)">
    <path id="Path_90" data-name="Path 90" d="M72.085,177.925h3.066v-4.7H75.1Z" transform="translate(48.12 -53.106)"
      fill="#fff" />
    <path id="Path_91" data-name="Path 91" d="M78.953,130.3l-1.614,4.356h3.192Z" transform="translate(55.253 -111.381)"
      fill="#fff" />
    <path id="Path_92" data-name="Path 92"
      d="M70.227,174.05a3.383,3.383,0,0,0-1.146-.806,3.635,3.635,0,0,0-1.481-.3,3.54,3.54,0,0,0-2.617,1.1,3.5,3.5,0,0,0-.745,1.226,4.766,4.766,0,0,0,.009,3.129,3.71,3.71,0,0,0,.745,1.245,3.366,3.366,0,0,0,1.139.818,3.814,3.814,0,0,0,2.94,0,3.49,3.49,0,0,0,1.146-.818,3.654,3.654,0,0,0,.754-1.245,4.537,4.537,0,0,0,.269-1.587,4.362,4.362,0,0,0-.269-1.542A3.685,3.685,0,0,0,70.227,174.05Z"
      transform="translate(37.115 -53.487)" fill="#fff" />
    <path id="Path_93" data-name="Path 93"
      d="M61.9,139.3a2.124,2.124,0,0,0-.667-.205,4.712,4.712,0,0,0-.712-.057H58.878V142H60.34a4.624,4.624,0,0,0,.773-.064,2.484,2.484,0,0,0,.721-.224,1.3,1.3,0,0,0,.738-1.254A1.2,1.2,0,0,0,61.9,139.3Z"
      transform="translate(30.19 -99.518)" fill="#fff" />
    <path id="Path_94" data-name="Path 94"
      d="M66.348,139.1v7.422H67.8a6.5,6.5,0,0,0,1.587-.189,3.725,3.725,0,0,0,1.346-.615,3.073,3.073,0,0,0,.931-1.151,4.708,4.708,0,0,0,0-3.558,3.008,3.008,0,0,0-.931-1.132,3.8,3.8,0,0,0-1.327-.6,6.475,6.475,0,0,0-1.532-.179Z"
      transform="translate(40.331 -99.434)" fill="#fff" />
    <path id="Path_95" data-name="Path 95"
      d="M85.564,174.315A2.889,2.889,0,0,0,85,173.278a1.205,1.205,0,0,0-.96-.422,1.23,1.23,0,0,0-.967.422,2.88,2.88,0,0,0-.582,1.037,6.166,6.166,0,0,0-.281,1.334c-.047.481-.071.917-.071,1.311s.024.851.071,1.337a6.163,6.163,0,0,0,.281,1.344,2.89,2.89,0,0,0,.582,1.04,1.237,1.237,0,0,0,.967.422,1.213,1.213,0,0,0,.96-.422,2.9,2.9,0,0,0,.566-1.04,6.616,6.616,0,0,0,.269-1.344q.071-.728.071-1.337c0-.394-.024-.83-.071-1.311A6.622,6.622,0,0,0,85.564,174.315Z"
      transform="translate(61.768 -53.611)" fill="#fff" />
    <path id="Path_96" data-name="Path 96"
      d="M90.474,174.315a2.886,2.886,0,0,0-.563-1.037,1.208,1.208,0,0,0-.96-.422,1.234,1.234,0,0,0-.969.422,2.915,2.915,0,0,0-.582,1.037,6.31,6.31,0,0,0-.278,1.334c-.047.481-.071.917-.071,1.311s.024.851.071,1.337a6.306,6.306,0,0,0,.278,1.344,2.926,2.926,0,0,0,.582,1.04,1.242,1.242,0,0,0,.969.422,1.216,1.216,0,0,0,.96-.422,2.9,2.9,0,0,0,.563-1.04,6.459,6.459,0,0,0,.269-1.344,13.235,13.235,0,0,0,.073-1.337,12.86,12.86,0,0,0-.073-1.311A6.462,6.462,0,0,0,90.474,174.315Z"
      transform="translate(68.438 -53.611)" fill="#fff" />
    <path id="Path_97" data-name="Path 97" d="M86,162.041h3.192l-1.578-4.356Z" transform="translate(67.005 -74.207)"
      fill="#fff" />
    <path id="Path_98" data-name="Path 98" d="M98.386,139.43l-1.614,4.356h3.192Z" transform="translate(81.636 -98.99)"
      fill="#fff" />
    <path id="Path_99" data-name="Path 99"
      d="M81.981,139.881a3.809,3.809,0,0,0-1.325-.6,6.509,6.509,0,0,0-1.535-.179H77.6v7.422h1.45a6.518,6.518,0,0,0,1.589-.189,3.732,3.732,0,0,0,1.344-.615,3.078,3.078,0,0,0,.934-1.151,4.709,4.709,0,0,0,0-3.558A3.014,3.014,0,0,0,81.981,139.881Z"
      transform="translate(55.604 -99.434)" fill="#fff" />
    <path id="Path_100" data-name="Path 100" d="M91.457,152.914h3.192l-1.578-4.356Z"
      transform="translate(74.419 -86.598)" fill="#fff" />
    <path id="Path_101" data-name="Path 101"
      d="M89.117,150.423a1.2,1.2,0,0,0,.476-1.033,1.019,1.019,0,0,0-.493-.941,2.91,2.91,0,0,0-1.462-.295H86.132v2.617h1.65A2.23,2.23,0,0,0,89.117,150.423Z"
      transform="translate(67.19 -87.145)" fill="#fff" />
    <path id="Path_102" data-name="Path 102"
      d="M95.672,158.136a3.77,3.77,0,0,0-1.325-.6,6.487,6.487,0,0,0-1.532-.179H91.289v7.422h1.452a6.5,6.5,0,0,0,1.587-.189,3.714,3.714,0,0,0,1.344-.615,3.1,3.1,0,0,0,.934-1.15,4.714,4.714,0,0,0,0-3.56A3.023,3.023,0,0,0,95.672,158.136Z"
      transform="translate(74.191 -74.651)" fill="#fff" />
    <path id="Path_103" data-name="Path 103"
      d="M89.414,150.529a3.473,3.473,0,0,0-1.58-.306h-1.7v2.907h1.721a4.563,4.563,0,0,0,.745-.064,2.345,2.345,0,0,0,.7-.224,1.319,1.319,0,0,0,.509-.457,1.343,1.343,0,0,0,.2-.761A1.12,1.12,0,0,0,89.414,150.529Z"
      transform="translate(67.19 -84.337)" fill="#fff" />
    <path id="Path_104" data-name="Path 104" d="M84.046,152.914l-1.578-4.356-1.614,4.356Z"
      transform="translate(60.024 -86.598)" fill="#fff" />
    <path id="Path_105" data-name="Path 105" d="M72.3,143.786H75.5l-1.578-4.356Z" transform="translate(48.417 -98.99)"
      fill="#fff" />
    <path id="Path_106" data-name="Path 106"
      d="M88.79,136.594a3.033,3.033,0,0,0,.931-1.151,4.68,4.68,0,0,0,0-3.558,2.987,2.987,0,0,0-.931-1.132,3.8,3.8,0,0,0-1.327-.6,6.475,6.475,0,0,0-1.532-.179H84.4V137.4h1.452a6.5,6.5,0,0,0,1.587-.189A3.725,3.725,0,0,0,88.79,136.594Z"
      transform="translate(64.845 -111.825)" fill="#fff" />
    <path id="Path_107" data-name="Path 107"
      d="M78.57,148.431a2.046,2.046,0,0,0-.667-.205,4.692,4.692,0,0,0-.712-.057H75.552v2.961h1.459a4.915,4.915,0,0,0,.776-.064,2.466,2.466,0,0,0,.719-.224,1.3,1.3,0,0,0,.74-1.254,1.285,1.285,0,0,0-.189-.728A1.315,1.315,0,0,0,78.57,148.431Z"
      transform="translate(52.827 -87.126)" fill="#fff" />
    <path id="Path_108" data-name="Path 108"
      d="M64.955,157.558a2.051,2.051,0,0,0-.665-.205,4.746,4.746,0,0,0-.714-.057H61.937v2.961H63.4a4.914,4.914,0,0,0,.776-.064,2.444,2.444,0,0,0,.719-.224,1.3,1.3,0,0,0,.74-1.254,1.285,1.285,0,0,0-.189-.728A1.316,1.316,0,0,0,64.955,157.558Z"
      transform="translate(34.343 -74.735)" fill="#fff" />
    <path id="Path_109" data-name="Path 109"
      d="M116.822,144.57a4.709,4.709,0,0,0,0-3.558,3.014,3.014,0,0,0-.934-1.132,3.771,3.771,0,0,0-1.325-.6,6.509,6.509,0,0,0-1.535-.179h-1.523v7.422h1.452a6.5,6.5,0,0,0,1.587-.189,3.714,3.714,0,0,0,1.344-.615A3.078,3.078,0,0,0,116.822,144.57Z"
      transform="translate(101.638 -99.434)" fill="#fff" />
    <path id="Path_110" data-name="Path 110"
      d="M107.906,152.021a4.353,4.353,0,0,0-.269-1.542,3.634,3.634,0,0,0-.745-1.228,3.383,3.383,0,0,0-1.146-.806,3.635,3.635,0,0,0-1.481-.3,3.54,3.54,0,0,0-2.619,1.1,3.486,3.486,0,0,0-.743,1.228,4.458,4.458,0,0,0-.259,1.542,4.592,4.592,0,0,0,.266,1.587,3.809,3.809,0,0,0,.745,1.247,3.377,3.377,0,0,0,1.139.813,3.792,3.792,0,0,0,2.942,0,3.511,3.511,0,0,0,1.148-.813,3.745,3.745,0,0,0,.752-1.247A4.538,4.538,0,0,0,107.906,152.021Z"
      transform="translate(86.893 -87.156)" fill="#fff" />
    <path id="Path_111" data-name="Path 111"
      d="M115.8,175.723a1.443,1.443,0,0,0,1.092-.448,1.471,1.471,0,0,0,.431-1.059,1.353,1.353,0,0,0-.448-1.04,1.541,1.541,0,0,0-1.075-.413,1.481,1.481,0,0,0-1.094.413,1.409,1.409,0,0,0-.413,1.04,1.526,1.526,0,0,0,.4,1.059A1.407,1.407,0,0,0,115.8,175.723Z"
      transform="translate(105.427 -53.736)" fill="#fff" />
    <path id="Path_112" data-name="Path 112"
      d="M107.738,174.315a2.889,2.889,0,0,0-.566-1.037,1.2,1.2,0,0,0-.957-.422,1.231,1.231,0,0,0-.969.422,2.915,2.915,0,0,0-.582,1.037,6.029,6.029,0,0,0-.278,1.334c-.047.481-.073.917-.073,1.311s.026.851.073,1.337a6.029,6.029,0,0,0,.278,1.344,2.926,2.926,0,0,0,.582,1.04,1.239,1.239,0,0,0,.969.422,1.211,1.211,0,0,0,.957-.422,2.9,2.9,0,0,0,.566-1.04,6.459,6.459,0,0,0,.269-1.344c.047-.486.073-.931.073-1.337s-.026-.83-.073-1.311A6.462,6.462,0,0,0,107.738,174.315Z"
      transform="translate(91.871 -53.611)" fill="#fff" />
    <path id="Path_113" data-name="Path 113"
      d="M115.958,174.993a1.747,1.747,0,0,0-1.283.483,1.647,1.647,0,0,0-.493,1.235,1.594,1.594,0,0,0,.493,1.231,1.808,1.808,0,0,0,1.283.455,1.781,1.781,0,0,0,1.273-.455,1.621,1.621,0,0,0,.483-1.231,1.667,1.667,0,0,0-.493-1.226A1.7,1.7,0,0,0,115.958,174.993Z"
      transform="translate(105.272 -50.71)" fill="#fff" />
    <path id="Path_114" data-name="Path 114"
      d="M21.1,122.277V267.439H280.086V122.277Zm175.5,15.532h3.084v10.025H204.6v2.374l5.2-12.4h2.975l5.274,12.7h-3.409l-.985-2.492h-4.913l-.934,2.492H204.6v-.3l-.125.3H196.6Zm20.386,31.542v2.671h-8v-12.7h3.084v10.025Zm-17.3-10.025h2.978l5.272,12.7h-3.407l-.985-2.492h-4.916l-.931,2.492h-3.336Zm-5.7,1.238-1.954,2.063a2.778,2.778,0,0,0-1.03-.8,2.907,2.907,0,0,0-1.231-.295,3.473,3.473,0,0,0-.618.054,1.547,1.547,0,0,0-.566.205,1.438,1.438,0,0,0-.422.4,1.045,1.045,0,0,0-.17.618,1,1,0,0,0,.134.538,1.2,1.2,0,0,0,.4.377,3.518,3.518,0,0,0,.618.295c.24.09.509.184.806.278q.647.216,1.346.474a5.1,5.1,0,0,1,1.273.691,3.662,3.662,0,0,1,.95,1.068,3.087,3.087,0,0,1,.377,1.587,4.183,4.183,0,0,1-.4,1.893,3.784,3.784,0,0,1-1.087,1.318,4.638,4.638,0,0,1-1.558.771,6.57,6.57,0,0,1-1.811.25,7.5,7.5,0,0,1-2.638-.474,5.6,5.6,0,0,1-2.115-1.353l2.009-2.044a3.717,3.717,0,0,0,1.228.96,3.362,3.362,0,0,0,1.516.384,3.08,3.08,0,0,0,.662-.071,1.743,1.743,0,0,0,.566-.233,1.155,1.155,0,0,0,.384-.431,1.347,1.347,0,0,0,.144-.646,1.033,1.033,0,0,0-.179-.611,1.775,1.775,0,0,0-.512-.455,3.987,3.987,0,0,0-.825-.377q-.5-.17-1.12-.368a10.777,10.777,0,0,1-1.193-.467,3.976,3.976,0,0,1-1.04-.691,3.165,3.165,0,0,1-.736-1.021,3.452,3.452,0,0,1-.278-1.464,3.583,3.583,0,0,1,.431-1.808,3.75,3.75,0,0,1,1.129-1.24,4.861,4.861,0,0,1,1.577-.7,7.1,7.1,0,0,1,1.775-.226,6.574,6.574,0,0,1,2.2.4A5.65,5.65,0,0,1,193.984,160.564Zm1.417,32.978h-3.407l-.985-2.492h-4.916l-.931,2.492h-3.336l5.326-12.7h2.978Zm-14.167-55.734h8.537v2.582h-5.578v2.4h5.272v2.457h-5.272v2.636h5.9V150.5h-8.86Zm-.394,46.3a2.644,2.644,0,0,1-.573,1.749,3.218,3.218,0,0,1-1.507.995v.035a3.4,3.4,0,0,1,1.011.332,2.923,2.923,0,0,1,.825.618,2.848,2.848,0,0,1,.556.879,2.966,2.966,0,0,1,.207,1.129,3.413,3.413,0,0,1-.413,1.749,3.336,3.336,0,0,1-1.094,1.141,4.74,4.74,0,0,1-1.551.615,8.294,8.294,0,0,1-1.785.189h-5.057v-12.7h5.057a7.779,7.779,0,0,1,1.507.153,4.376,4.376,0,0,1,1.4.521,2.79,2.79,0,0,1,1.417,2.589Zm-5.415-17.467v5.38h-3.067v-5.38l-4.772-7.316H171.3l2.709,4.7,2.707-4.7H180.3Zm-8.07-28.833h4.59a11.339,11.339,0,0,1,2.655.316,6.607,6.607,0,0,1,2.332,1.04,5.3,5.3,0,0,1,1.648,1.945,6.517,6.517,0,0,1,.629,3.011,6.248,6.248,0,0,1-.62,2.879,5.789,5.789,0,0,1-1.631,1.992,6.754,6.754,0,0,1-2.287,1.146,9.17,9.17,0,0,1-2.582.368h-4.734Zm3.048,55.734H167l-.985-2.492H161.1l-.931,2.492h-3.282l-.031-.052-.024.052H153.3l-2.756-5.038H149.5v5.038h-3v-12.7h4.843a8.448,8.448,0,0,1,1.785.189,4.6,4.6,0,0,1,1.558.637,3.325,3.325,0,0,1,1.1,1.184,3.691,3.691,0,0,1,.413,1.83,3.373,3.373,0,0,1-.7,2.169,3.819,3.819,0,0,1-1.936,1.257l3.286,5.38,5.3-12.644h2.978Zm-14.775,8.822v12.7h-3.084v-12.7Zm-20.766-18.9v-2.619H145.1v2.619h-3.588v10.076h-3.065V183.466Zm6.078-13.936-.934,2.492h-3.334l5.323-12.7h2.978l5.272,12.7h-3.407l-.985-2.492Zm22.218-3.892a6.248,6.248,0,0,1-.618,2.879,5.822,5.822,0,0,1-1.634,1.992,6.721,6.721,0,0,1-2.285,1.146,9.186,9.186,0,0,1-2.584.368H151.3v-12.7h4.59a11.434,11.434,0,0,1,2.655.314,6.634,6.634,0,0,1,2.332,1.042,5.325,5.325,0,0,1,1.65,1.945A6.548,6.548,0,0,1,163.159,165.638Zm-9.289-27.829h2.978l5.272,12.7h-3.407l-.985-2.492h-4.916l-.931,2.492h-3.336Zm-20.891,0h4.362l2.89,8.143h.073l2.765-8.143H147.5v12.7h-3.013l.071-8.982h-.052l-3.3,8.982h-2.152l-3.209-8.982h-.054l.071,8.982h-2.886Zm1.382,22.873a5.3,5.3,0,0,1,1.648,1.945,6.518,6.518,0,0,1,.627,3.011,6.248,6.248,0,0,1-.618,2.879,5.789,5.789,0,0,1-1.631,1.992,6.754,6.754,0,0,1-2.287,1.146,9.169,9.169,0,0,1-2.582.368h-4.734v-12.7h4.59a11.464,11.464,0,0,1,2.655.314A6.653,6.653,0,0,1,134.361,160.682Zm-3.371,30.189v2.671h-8v-12.7h3.086v10.025Zm-8.9-53.063h8.537v2.582h-5.578v2.4h5.272v2.457h-5.272v2.636h5.9V150.5h-8.86Zm-25.66,55.734H93.456v-12.7h3.5l5.095,8.285h.054l-.073-8.285H105v12.7h-3.477l-5.111-8.3h-.054Zm7.082,8.822h8.537v2.582h-5.578v2.4h5.272v2.457h-5.272v2.636h5.9v2.617h-8.86Zm14.058-30.342h-3.586l-2.756-5.038h-1.047v5.038h-2.994v-12.7h4.84a8.442,8.442,0,0,1,1.785.189,4.612,4.612,0,0,1,1.561.637,3.346,3.346,0,0,1,1.1,1.184,3.716,3.716,0,0,1,.413,1.829,3.373,3.373,0,0,1-.7,2.169,3.824,3.824,0,0,1-1.936,1.257Zm-5.47,21.52v-12.7h8.537v2.582h-5.578v2.4h5.272v2.457h-5.272v2.636h5.9v2.617Zm6.976-21.52v-12.7h3.084v12.7Zm-8.626-34.214H120.7v2.619h-3.588V150.5H114.04V140.428h-3.586Zm-3.871,8.5a1.775,1.775,0,0,0-.512-.455,3.987,3.987,0,0,0-.825-.377c-.33-.113-.7-.236-1.122-.368a10.93,10.93,0,0,1-1.191-.467,3.977,3.977,0,0,1-1.04-.691,3.14,3.14,0,0,1-.736-1.021,3.452,3.452,0,0,1-.278-1.464,3.583,3.583,0,0,1,.431-1.808,3.719,3.719,0,0,1,1.129-1.238,4.8,4.8,0,0,1,1.577-.707,7.1,7.1,0,0,1,1.775-.226,6.574,6.574,0,0,1,2.2.4,5.671,5.671,0,0,1,1.964,1.165L108,141.11a2.765,2.765,0,0,0-1.03-.8,2.9,2.9,0,0,0-1.228-.295,3.473,3.473,0,0,0-.618.054,1.547,1.547,0,0,0-.566.205,1.438,1.438,0,0,0-.422.4,1.045,1.045,0,0,0-.17.618,1,1,0,0,0,.134.538,1.2,1.2,0,0,0,.4.377,3.519,3.519,0,0,0,.618.295c.238.09.509.184.806.278q.647.216,1.346.474a5.217,5.217,0,0,1,1.273.691,3.662,3.662,0,0,1,.95,1.068,3.087,3.087,0,0,1,.377,1.587,4.183,4.183,0,0,1-.4,1.893,3.784,3.784,0,0,1-1.087,1.318,4.638,4.638,0,0,1-1.558.771,6.575,6.575,0,0,1-1.813.25,7.5,7.5,0,0,1-2.636-.474A5.6,5.6,0,0,1,100.253,149l2.006-2.044a3.766,3.766,0,0,0,1.228.96A3.376,3.376,0,0,0,105,148.3a3.107,3.107,0,0,0,.665-.071,1.71,1.71,0,0,0,.563-.233,1.141,1.141,0,0,0,.387-.431,1.347,1.347,0,0,0,.144-.646A1.033,1.033,0,0,0,106.583,146.308Zm-10.993-8.5h3.084v12.7H95.59Zm-1.759,21.518h3.048v7.658a3.559,3.559,0,0,0,.134.988,2.548,2.548,0,0,0,.413.832,1.927,1.927,0,0,0,.736.582,2.915,2.915,0,0,0,2.207,0,2.015,2.015,0,0,0,.745-.582,2.293,2.293,0,0,0,.41-.832,3.744,3.744,0,0,0,.127-.988v-7.658h3.065v7.907a5.478,5.478,0,0,1-.384,2.091,4.564,4.564,0,0,1-1.1,1.613,5.126,5.126,0,0,1-1.73,1.049,6.929,6.929,0,0,1-4.51,0,4.941,4.941,0,0,1-1.7-1.049,4.557,4.557,0,0,1-1.075-1.613,5.568,5.568,0,0,1-.377-2.091Zm-3.548-13.019a1.776,1.776,0,0,0-.512-.455,3.987,3.987,0,0,0-.825-.377c-.33-.113-.7-.236-1.122-.368a10.93,10.93,0,0,1-1.191-.467,3.977,3.977,0,0,1-1.04-.691,3.14,3.14,0,0,1-.736-1.021,3.452,3.452,0,0,1-.278-1.464,3.583,3.583,0,0,1,.431-1.808,3.719,3.719,0,0,1,1.129-1.238,4.8,4.8,0,0,1,1.577-.707,7.076,7.076,0,0,1,1.775-.226,6.574,6.574,0,0,1,2.2.4,5.671,5.671,0,0,1,1.964,1.165L91.7,141.11a2.765,2.765,0,0,0-1.03-.8,2.9,2.9,0,0,0-1.228-.295,3.473,3.473,0,0,0-.618.054,1.547,1.547,0,0,0-.566.205,1.438,1.438,0,0,0-.422.4,1.045,1.045,0,0,0-.17.618,1,1,0,0,0,.134.538,1.2,1.2,0,0,0,.4.377,3.519,3.519,0,0,0,.618.295c.238.09.509.184.806.278q.647.216,1.346.474a5.217,5.217,0,0,1,1.273.691,3.662,3.662,0,0,1,.95,1.068,3.087,3.087,0,0,1,.375,1.587,4.183,4.183,0,0,1-.4,1.893,3.784,3.784,0,0,1-1.087,1.318,4.628,4.628,0,0,1-1.561.771,6.546,6.546,0,0,1-1.811.25,7.5,7.5,0,0,1-2.636-.474A5.6,5.6,0,0,1,83.953,149l2.006-2.044a3.766,3.766,0,0,0,1.228.96,3.376,3.376,0,0,0,1.516.384,3.107,3.107,0,0,0,.665-.071,1.709,1.709,0,0,0,.563-.233,1.161,1.161,0,0,0,.387-.431,1.347,1.347,0,0,0,.144-.646A1.033,1.033,0,0,0,90.283,146.308ZM80.105,162.894a6.129,6.129,0,0,1,1.462-2.105,6.462,6.462,0,0,1,2.188-1.337,7.761,7.761,0,0,1,2.707-.464,8.4,8.4,0,0,1,2.8.455,5.8,5.8,0,0,1,2.1,1.231L89.42,162.88a3.316,3.316,0,0,0-1.184-.853,4.008,4.008,0,0,0-1.667-.33,3.7,3.7,0,0,0-1.49.295,3.623,3.623,0,0,0-1.184.823,3.74,3.74,0,0,0-.778,1.257,4.383,4.383,0,0,0-.278,1.587,4.978,4.978,0,0,0,.25,1.615,3.441,3.441,0,0,0,.745,1.264,3.382,3.382,0,0,0,1.219.825,4.36,4.36,0,0,0,1.66.3,6.134,6.134,0,0,0,1.021-.082,3.824,3.824,0,0,0,.9-.259V167H86.211v-2.475h5.236v6.724a9.751,9.751,0,0,1-2.178.79,11.467,11.467,0,0,1-2.718.3,7.869,7.869,0,0,1-2.806-.483,6.51,6.51,0,0,1-2.207-1.363,6.215,6.215,0,0,1-1.443-2.108,7.45,7.45,0,0,1,.009-5.5Zm10.7,22.939v2.457H85.53v2.636h5.9v2.617h-8.86v-12.7h8.535v2.582H85.53v2.4Zm-21.52-26.507h8.537v2.582H72.24v2.4h5.272v2.457H72.24v2.636h5.9v2.617h-8.86ZM57.689,252.009H54.605V239.315h3.084Zm-.045-81.491,2.009-2.044a3.717,3.717,0,0,0,1.228.96,3.362,3.362,0,0,0,1.516.384,3.08,3.08,0,0,0,.662-.071,1.744,1.744,0,0,0,.566-.233,1.155,1.155,0,0,0,.384-.431,1.347,1.347,0,0,0,.144-.646,1.033,1.033,0,0,0-.179-.611,1.774,1.774,0,0,0-.512-.455,3.988,3.988,0,0,0-.825-.377c-.328-.113-.7-.236-1.12-.368a10.779,10.779,0,0,1-1.193-.467,3.976,3.976,0,0,1-1.04-.691,3.237,3.237,0,0,1-.736-1.021,3.452,3.452,0,0,1-.278-1.464,3.583,3.583,0,0,1,.431-1.808,3.75,3.75,0,0,1,1.129-1.24,4.884,4.884,0,0,1,1.577-.7A7.1,7.1,0,0,1,63.185,159a6.574,6.574,0,0,1,2.2.4,5.629,5.629,0,0,1,1.964,1.165l-1.954,2.063a2.779,2.779,0,0,0-1.03-.8,2.9,2.9,0,0,0-1.231-.295,3.473,3.473,0,0,0-.618.054,1.563,1.563,0,0,0-.566.205,1.4,1.4,0,0,0-.42.4,1.029,1.029,0,0,0-.172.618,1,1,0,0,0,.134.538,1.222,1.222,0,0,0,.4.377,3.6,3.6,0,0,0,.618.295c.24.09.509.184.806.278q.647.216,1.346.474a5.1,5.1,0,0,1,1.273.691,3.629,3.629,0,0,1,.95,1.068,3.064,3.064,0,0,1,.377,1.587,4.152,4.152,0,0,1-.4,1.893,3.759,3.759,0,0,1-1.087,1.318,4.638,4.638,0,0,1-1.558.771,6.57,6.57,0,0,1-1.811.25,7.48,7.48,0,0,1-2.636-.474A5.6,5.6,0,0,1,57.644,170.518Zm14.207,81.491H68.374l-5.109-8.3h-.054l.071,8.3H60.306V239.315h3.5l5.092,8.282h.052l-.071-8.282h2.975Zm11.637-10.074H79.9v10.074H76.837V241.935H73.252v-2.619H83.488Zm10.253,10.074H84.886V239.315h8.532V241.9H87.845v2.4h5.269v2.454H87.845v2.636h5.9Zm2.617.934-2.025-.665,5.54-13.931,2.025.7Zm3.77-38.1a6.829,6.829,0,0,1-2.853.563,7.484,7.484,0,0,1-2.716-.483,6.261,6.261,0,0,1-3.6-3.5,7.425,7.425,0,0,1,.009-5.488,6.156,6.156,0,0,1,1.459-2.105,6.5,6.5,0,0,1,2.19-1.337,7.7,7.7,0,0,1,2.707-.464,7.614,7.614,0,0,1,2.645.474,5.082,5.082,0,0,1,2.108,1.391L100,205.97a2.583,2.583,0,0,0-1.129-.879,3.738,3.738,0,0,0-1.433-.285,3.665,3.665,0,0,0-1.481.295,3.517,3.517,0,0,0-1.158.816,3.753,3.753,0,0,0-.752,1.228,4.34,4.34,0,0,0-.269,1.551,4.456,4.456,0,0,0,.269,1.577,3.668,3.668,0,0,0,.745,1.231,3.343,3.343,0,0,0,1.139.8,3.62,3.62,0,0,0,1.452.285,3.369,3.369,0,0,0,1.6-.358,3.042,3.042,0,0,0,1.094-.931l2.134,2.009A6.067,6.067,0,0,1,100.128,214.839Zm6.163,37.17h-3.084V239.315h3.084Zm5.422-8.676a1.221,1.221,0,0,0,.4.377,3.517,3.517,0,0,0,.618.295c.238.09.507.182.806.278.431.141.879.3,1.344.474a5.08,5.08,0,0,1,1.275.691,3.612,3.612,0,0,1,.948,1.066,3.064,3.064,0,0,1,.377,1.587,4.152,4.152,0,0,1-.4,1.893,3.745,3.745,0,0,1-1.084,1.316,4.573,4.573,0,0,1-1.558.771,6.487,6.487,0,0,1-1.813.252,7.5,7.5,0,0,1-2.636-.474,5.6,5.6,0,0,1-2.115-1.356l2.009-2.044a3.745,3.745,0,0,0,1.228.962,3.359,3.359,0,0,0,1.514.384,2.963,2.963,0,0,0,.665-.073,1.613,1.613,0,0,0,.563-.231,1.179,1.179,0,0,0,.387-.431,1.366,1.366,0,0,0,.144-.644,1.018,1.018,0,0,0-.182-.611,1.736,1.736,0,0,0-.509-.457,4.176,4.176,0,0,0-.825-.377q-.5-.17-1.12-.368a10.767,10.767,0,0,1-1.193-.464,3.977,3.977,0,0,1-1.04-.691,3.221,3.221,0,0,1-.736-1.023,3.448,3.448,0,0,1-.278-1.462,3.57,3.57,0,0,1,.431-1.808,3.744,3.744,0,0,1,1.129-1.238,4.822,4.822,0,0,1,1.577-.71,7.211,7.211,0,0,1,1.775-.222,6.57,6.57,0,0,1,2.2.394,5.639,5.639,0,0,1,1.962,1.165l-1.954,2.063a2.741,2.741,0,0,0-1.03-.8,2.9,2.9,0,0,0-1.228-.295,3.678,3.678,0,0,0-.618.052,1.64,1.64,0,0,0-.566.207,1.43,1.43,0,0,0-.422.394,1.063,1.063,0,0,0-.17.62A1,1,0,0,0,111.713,243.333Zm5.684-33.311v5.038h-3v-12.7h4.843a8.445,8.445,0,0,1,1.785.189,4.6,4.6,0,0,1,1.558.637,3.3,3.3,0,0,1,1.1,1.184,3.687,3.687,0,0,1,.415,1.827,3.388,3.388,0,0,1-.7,2.171,3.836,3.836,0,0,1-1.938,1.257l3.32,5.432H121.2l-2.756-5.038Zm14.818,38.337a6.265,6.265,0,0,1-1.443,2.136,6.45,6.45,0,0,1-2.2,1.372,7.747,7.747,0,0,1-2.761.483,7.668,7.668,0,0,1-2.751-.483,6.432,6.432,0,0,1-2.188-1.372,6.265,6.265,0,0,1-1.443-2.136,7.525,7.525,0,0,1,0-5.5,6.016,6.016,0,0,1,1.443-2.086,6.371,6.371,0,0,1,2.188-1.33,7.874,7.874,0,0,1,2.751-.464,7.956,7.956,0,0,1,2.761.464,6.39,6.39,0,0,1,2.2,1.33,6.016,6.016,0,0,1,1.443,2.086,7.557,7.557,0,0,1,0,5.5Zm2.9-43.375h-3.586V215.06H128.46V204.984h-3.586v-2.619h10.239Zm1.4-2.619H139.6v12.7h-3.084Zm12.394,47.169h-1.74v2.475h-2.815v-2.475h-5.969v-2.527l5.163-7.691h3.6v7.78h1.759Zm1.252-39.4h-4.913v4.932h-3.032v-12.7h8.358v2.619h-5.326V207.6h4.913Zm9.379,39.7a3.99,3.99,0,0,1-1.1,1.408,4.809,4.809,0,0,1-1.57.835,5.927,5.927,0,0,1-1.811.278,6.049,6.049,0,0,1-1.641-.224,5.181,5.181,0,0,1-1.415-.639,4.22,4.22,0,0,1-1.094-1.011,4.046,4.046,0,0,1-.672-1.353l2.742-.844a2.125,2.125,0,0,0,.745,1.094,2.156,2.156,0,0,0,2.633-.035,1.683,1.683,0,0,0,.566-1.382,1.733,1.733,0,0,0-.233-.931,1.809,1.809,0,0,0-.6-.6,2.606,2.606,0,0,0-.832-.314,5.007,5.007,0,0,0-.934-.09,10.158,10.158,0,0,0-3.1.556l.3-7.261h7.78V241.9H154.2l-.108,2.009a3.8,3.8,0,0,1,.637-.1c.233-.017.446-.026.637-.026a6.261,6.261,0,0,1,1.794.25,4.136,4.136,0,0,1,1.462.764,3.622,3.622,0,0,1,.976,1.264,4.056,4.056,0,0,1,.358,1.756A4.571,4.571,0,0,1,159.537,249.83Zm.071-36.284a6.339,6.339,0,0,1-1.433-2.127,7.425,7.425,0,0,1,.009-5.488,6.155,6.155,0,0,1,1.459-2.105,6.509,6.509,0,0,1,2.188-1.337,7.711,7.711,0,0,1,2.709-.464,7.624,7.624,0,0,1,2.645.474,5.082,5.082,0,0,1,2.108,1.391l-2.082,2.079a2.583,2.583,0,0,0-1.129-.879,3.758,3.758,0,0,0-1.436-.285,3.654,3.654,0,0,0-1.478.295,3.493,3.493,0,0,0-1.158.816,3.714,3.714,0,0,0-.752,1.228,4.34,4.34,0,0,0-.269,1.551,4.456,4.456,0,0,0,.269,1.577A3.668,3.668,0,0,0,162,211.5a3.344,3.344,0,0,0,1.139.8,3.62,3.62,0,0,0,1.452.285,3.369,3.369,0,0,0,1.6-.358,3.034,3.034,0,0,0,1.092-.931l2.136,2.009a6.076,6.076,0,0,1-2.082,1.535,6.817,6.817,0,0,1-2.85.563,7.474,7.474,0,0,1-2.716-.483A6.422,6.422,0,0,1,159.608,213.547Zm11.977,34.643a6.559,6.559,0,0,1-.861,2.143,4.284,4.284,0,0,1-3.819,2.018,4.347,4.347,0,0,1-3.845-2.018,6.468,6.468,0,0,1-.87-2.143,12.319,12.319,0,0,1,0-5.118,6.293,6.293,0,0,1,.87-2.115,4.484,4.484,0,0,1,1.551-1.443,4.592,4.592,0,0,1,2.294-.538,4.546,4.546,0,0,1,2.287.538,4.426,4.426,0,0,1,1.532,1.443,6.381,6.381,0,0,1,.861,2.115,12.318,12.318,0,0,1,0,5.118Zm.7-33.129h-3.334l5.323-12.7h2.978l5.272,12.7H179.12l-.985-2.492h-4.913Zm10.88,33.129a6.559,6.559,0,0,1-.861,2.143,4.284,4.284,0,0,1-3.819,2.018,4.339,4.339,0,0,1-3.845-2.018,6.418,6.418,0,0,1-.87-2.143,12.318,12.318,0,0,1,0-5.118,6.245,6.245,0,0,1,.87-2.115,4.5,4.5,0,0,1,1.549-1.443,4.6,4.6,0,0,1,2.3-.538,4.552,4.552,0,0,1,2.287.538,4.426,4.426,0,0,1,1.532,1.443,6.381,6.381,0,0,1,.861,2.115,12.318,12.318,0,0,1,0,5.118Zm9.159,3.819h-2.994v-9.322l-2.365,1.827-1.561-2.134,4.175-3.065h2.744Zm2.492-40.454a5.816,5.816,0,0,1-1.631,1.992,6.8,6.8,0,0,1-2.287,1.146,9.171,9.171,0,0,1-2.582.368h-4.734v-12.7h4.59a11.336,11.336,0,0,1,2.655.314,6.653,6.653,0,0,1,2.332,1.042,5.3,5.3,0,0,1,1.648,1.945,6.511,6.511,0,0,1,.627,3.011A6.248,6.248,0,0,1,194.819,211.555Zm.278-20.648,2.709-.915a1.555,1.555,0,0,0,.457.806,1.15,1.15,0,0,0,.816.306.982.982,0,0,0,.995-.521,3.268,3.268,0,0,0,.24-1.363v-8.374H203.4V189.2a8.01,8.01,0,0,1-.17,1.577,4.346,4.346,0,0,1-.629,1.516,3.5,3.5,0,0,1-1.273,1.136,4.345,4.345,0,0,1-2.108.45,4.263,4.263,0,0,1-2.69-.835A3.971,3.971,0,0,1,195.1,190.907Zm5.335,60.18a1.7,1.7,0,0,1-.934.894,1.668,1.668,0,0,1-.662.137,1.832,1.832,0,0,1-.681-.127,1.664,1.664,0,0,1-.566-.358,1.78,1.78,0,0,1-.384-.538,1.507,1.507,0,0,1-.144-.663,1.585,1.585,0,0,1,.144-.672,1.764,1.764,0,0,1,.384-.547,1.8,1.8,0,0,1,.566-.368,1.747,1.747,0,0,1,.681-.134,1.706,1.706,0,0,1,.662.134,1.765,1.765,0,0,1,.556.358,1.738,1.738,0,0,1,.377.538,1.672,1.672,0,0,1,0,1.346Zm0-5.757a1.913,1.913,0,0,1-.377.549,1.744,1.744,0,0,1-1.219.5,1.831,1.831,0,0,1-.681-.125,1.665,1.665,0,0,1-.566-.358,1.809,1.809,0,0,1-.384-.538,1.521,1.521,0,0,1-.144-.663,1.589,1.589,0,0,1,.144-.674,1.793,1.793,0,0,1,.384-.547,1.839,1.839,0,0,1,.566-.365,1.749,1.749,0,0,1,.681-.137,1.709,1.709,0,0,1,.662.137,1.805,1.805,0,0,1,.556.358,1.765,1.765,0,0,1,.377.538,1.574,1.574,0,0,1,.141.653A1.6,1.6,0,0,1,200.432,245.33Zm-1.6-31.783a6.27,6.27,0,0,1-1.445-2.136,7.563,7.563,0,0,1,0-5.505,6.053,6.053,0,0,1,1.445-2.089,6.438,6.438,0,0,1,2.188-1.327,8.409,8.409,0,0,1,5.512,0,6.446,6.446,0,0,1,2.2,1.327,6.08,6.08,0,0,1,1.443,2.089,7.531,7.531,0,0,1,0,5.505,6.3,6.3,0,0,1-1.443,2.136,6.472,6.472,0,0,1-2.2,1.372,8.1,8.1,0,0,1-5.512,0A6.466,6.466,0,0,1,198.836,213.547Zm13.356,38.462h-9.18v-2.5l4.949-4.477a4.649,4.649,0,0,0,.752-.91,1.949,1.949,0,0,0,.288-1.04,1.478,1.478,0,0,0-.429-1.1,1.733,1.733,0,0,0-2.376.108,2.389,2.389,0,0,0-.563,1.389l-2.888-.394a4.463,4.463,0,0,1,1.6-3.013,4.625,4.625,0,0,1,1.478-.813,5.53,5.53,0,0,1,1.766-.278,6.329,6.329,0,0,1,1.7.231,4.425,4.425,0,0,1,1.469.719,3.538,3.538,0,0,1,1.03,1.219,3.627,3.627,0,0,1,.387,1.721,3.911,3.911,0,0,1-.179,1.228,3.986,3.986,0,0,1-.493,1.011,6,6,0,0,1-.717.872q-.4.4-.835.794l-2.94,2.619h5.182ZM209.5,193.4a6.513,6.513,0,0,1-2.188-1.372,6.264,6.264,0,0,1-1.443-2.136,7.072,7.072,0,0,1-.521-2.751,6.989,6.989,0,0,1,.521-2.751,6.036,6.036,0,0,1,1.443-2.091,6.483,6.483,0,0,1,2.188-1.327,8.416,8.416,0,0,1,5.514,0,6.435,6.435,0,0,1,2.2,1.327,6.036,6.036,0,0,1,1.443,2.091,6.989,6.989,0,0,1,.521,2.751,7.072,7.072,0,0,1-.521,2.751,6.264,6.264,0,0,1-1.443,2.136,6.463,6.463,0,0,1-2.2,1.372,8.107,8.107,0,0,1-5.514,0Zm14.36,54.788a6.561,6.561,0,0,1-.863,2.143,4.283,4.283,0,0,1-3.817,2.018,4.347,4.347,0,0,1-3.848-2.018,6.415,6.415,0,0,1-.868-2.143,12.213,12.213,0,0,1,0-5.118,6.242,6.242,0,0,1,.868-2.115,4.484,4.484,0,0,1,1.551-1.443,4.6,4.6,0,0,1,2.3-.538,4.537,4.537,0,0,1,2.285.538A4.426,4.426,0,0,1,223,240.956a6.383,6.383,0,0,1,.863,2.115,12.425,12.425,0,0,1,0,5.118Zm-.561-75.825a6.409,6.409,0,0,1-2.259-.377,4.941,4.941,0,0,1-1.7-1.049,4.526,4.526,0,0,1-1.075-1.613,5.569,5.569,0,0,1-.377-2.091v-7.907h3.048v7.658a3.559,3.559,0,0,0,.134.988,2.5,2.5,0,0,0,.413.832,1.892,1.892,0,0,0,.736.582,2.909,2.909,0,0,0,2.2,0,1.978,1.978,0,0,0,.745-.582,2.335,2.335,0,0,0,.413-.832,3.844,3.844,0,0,0,.125-.988v-7.658h3.067v7.907a5.479,5.479,0,0,1-.387,2.091,4.558,4.558,0,0,1-1.1,1.613,5.126,5.126,0,0,1-1.73,1.049A6.453,6.453,0,0,1,223.3,172.364Zm9.72,79.645H230.03v-9.322l-2.367,1.827L226.1,242.38l4.175-3.065h2.744Zm-1.778-79.986v-12.7h4.593a11.463,11.463,0,0,1,2.655.314,6.642,6.642,0,0,1,2.329,1.042,5.325,5.325,0,0,1,1.65,1.945,6.548,6.548,0,0,1,.627,3.011,6.248,6.248,0,0,1-.618,2.879,5.816,5.816,0,0,1-1.631,1.992,6.754,6.754,0,0,1-2.287,1.146,9.169,9.169,0,0,1-2.582.368Zm15.44,78.112a3.737,3.737,0,0,1-1.047,1.24,4.558,4.558,0,0,1-1.521.733,6.81,6.81,0,0,1-3.6,0,4.554,4.554,0,0,1-1.514-.726,3.575,3.575,0,0,1-1.047-1.228,3.687,3.687,0,0,1-.394-1.747,3.064,3.064,0,0,1,.179-1.066,3,3,0,0,1,.493-.879,3.353,3.353,0,0,1,.726-.665,3.242,3.242,0,0,1,.879-.42v-.038a3.125,3.125,0,0,1-1.382-.995,2.7,2.7,0,0,1-.554-1.747,3.319,3.319,0,0,1,.356-1.561,3.377,3.377,0,0,1,.969-1.139,4.459,4.459,0,0,1,1.417-.691A6.315,6.315,0,0,1,244,239.2a4.361,4.361,0,0,1,1.41.672,3.409,3.409,0,0,1,.976,1.12,3.186,3.186,0,0,1,.368,1.554,2.864,2.864,0,0,1-.538,1.771,2.792,2.792,0,0,1-1.4,1v.057a3.169,3.169,0,0,1,1.6,1.085,3.129,3.129,0,0,1,.479.879,3,3,0,0,1,.179,1.047A3.688,3.688,0,0,1,246.686,250.135Z"
      transform="translate(-21.099 -122.277)" fill="#fff" />
    <path id="Path_115" data-name="Path 115" d="M102.677,130.3l-1.614,4.356h3.192Z"
      transform="translate(87.46 -111.381)" fill="#fff" />
    <path id="Path_116" data-name="Path 116"
      d="M102.139,164.795a3.462,3.462,0,0,0,1.148-.813,3.706,3.706,0,0,0,.752-1.247,4.542,4.542,0,0,0,.269-1.589,4.349,4.349,0,0,0-.269-1.54,3.667,3.667,0,0,0-.743-1.228,3.415,3.415,0,0,0-1.148-.806,3.618,3.618,0,0,0-1.481-.3,3.566,3.566,0,0,0-1.471.3,3.527,3.527,0,0,0-1.146.806,3.457,3.457,0,0,0-.745,1.228,4.454,4.454,0,0,0-.259,1.54,4.541,4.541,0,0,0,.269,1.589,3.769,3.769,0,0,0,.745,1.247,3.368,3.368,0,0,0,1.136.813,3.791,3.791,0,0,0,2.942,0Z"
      transform="translate(82.008 -74.765)" fill="#fff" />
  </g>
  <g id="Group_36" data-name="Group 36" transform="translate(44.137 386.425)">
    <path id="Path_117" data-name="Path 117"
      d="M49.5,192.637a5.182,5.182,0,0,0-1.747-1.525,5.365,5.365,0,0,0-2.579-.575,5.6,5.6,0,0,0-1.57.233,4.573,4.573,0,0,0-1.452.729,3.656,3.656,0,0,0-1.049,1.228,3.594,3.594,0,0,0-.4,1.747,3.23,3.23,0,0,0,.384,1.662,3.642,3.642,0,0,0,1.018,1.108,5.844,5.844,0,0,0,1.448.757q.813.3,1.7.594,1.093.354,2.2.769a7.914,7.914,0,0,1,1.995,1.082,5.187,5.187,0,0,1,1.448,1.688,5.337,5.337,0,0,1,.563,2.591,5.754,5.754,0,0,1-.6,2.714,5.674,5.674,0,0,1-1.554,1.879,6.43,6.43,0,0,1-2.188,1.1,8.814,8.814,0,0,1-2.473.358,9.576,9.576,0,0,1-1.9-.193,8.66,8.66,0,0,1-1.808-.58,7.3,7.3,0,0,1-1.6-.978,7,7,0,0,1-1.3-1.363l1.837-1.36a5.578,5.578,0,0,0,1.912,1.881,5.409,5.409,0,0,0,2.888.754,5.614,5.614,0,0,0,1.629-.252,4.545,4.545,0,0,0,1.495-.769,4.241,4.241,0,0,0,1.1-1.275,3.482,3.482,0,0,0,.431-1.761,3.532,3.532,0,0,0-.431-1.825,3.775,3.775,0,0,0-1.139-1.212,6.9,6.9,0,0,0-1.631-.816c-.611-.217-1.254-.436-1.924-.653-.693-.215-1.374-.464-2.046-.74a6.884,6.884,0,0,1-1.806-1.082,5.079,5.079,0,0,1-1.29-1.643,6.011,6.011,0,0,1,.12-5.008,5.458,5.458,0,0,1,1.584-1.808,6.664,6.664,0,0,1,2.162-1.035,8.812,8.812,0,0,1,2.341-.325,8.073,8.073,0,0,1,3.645.754,6.226,6.226,0,0,1,2.28,1.792Z"
      transform="translate(-38.031 -188.728)" fill="#fff" />
    <path id="Path_118" data-name="Path 118"
      d="M56.583,192.637a5.138,5.138,0,0,0-1.747-1.525,5.359,5.359,0,0,0-2.579-.575,5.61,5.61,0,0,0-1.57.233,4.561,4.561,0,0,0-1.45.729,3.689,3.689,0,0,0-1.052,1.228,3.621,3.621,0,0,0-.4,1.747,3.23,3.23,0,0,0,.384,1.662,3.7,3.7,0,0,0,1.018,1.108,5.886,5.886,0,0,0,1.448.757q.813.3,1.7.594,1.093.354,2.2.769a7.9,7.9,0,0,1,1.992,1.082,5.222,5.222,0,0,1,1.45,1.688,5.365,5.365,0,0,1,.561,2.591,5.783,5.783,0,0,1-.6,2.714,5.709,5.709,0,0,1-1.556,1.879,6.44,6.44,0,0,1-2.185,1.1,8.843,8.843,0,0,1-2.475.358,9.576,9.576,0,0,1-1.9-.193,8.6,8.6,0,0,1-1.806-.58,7.2,7.2,0,0,1-1.6-.978,6.94,6.94,0,0,1-1.3-1.363l1.837-1.36a5.62,5.62,0,0,0,1.912,1.881,5.415,5.415,0,0,0,2.888.754,5.6,5.6,0,0,0,1.629-.252,4.556,4.556,0,0,0,1.5-.769,4.309,4.309,0,0,0,1.1-1.275,3.505,3.505,0,0,0,.429-1.761,3.555,3.555,0,0,0-.429-1.825,3.808,3.808,0,0,0-1.141-1.212,6.882,6.882,0,0,0-1.629-.816c-.613-.217-1.254-.436-1.926-.653-.693-.215-1.374-.464-2.044-.74a6.9,6.9,0,0,1-1.808-1.082,5.041,5.041,0,0,1-1.287-1.643,6,6,0,0,1,.118-5.008,5.485,5.485,0,0,1,1.584-1.808,6.687,6.687,0,0,1,2.162-1.035,8.816,8.816,0,0,1,2.343-.325,8.056,8.056,0,0,1,3.642.754,6.255,6.255,0,0,1,2.282,1.792Z"
      transform="translate(-28.41 -188.728)" fill="#fff" />
    <path id="Path_119" data-name="Path 119" d="M60.67,209.93H58.536V190.85H51.515v-1.9H67.691v1.9H60.67Z"
      transform="translate(-19.725 -188.421)" fill="#fff" />
    <path id="Path_120" data-name="Path 120" d="M64.649,196.134H58.012v-1.688h6.637Z"
      transform="translate(-10.905 -180.965)" fill="#fff" />
    <path id="Path_121" data-name="Path 121"
      d="M69.017,188.728a5.388,5.388,0,0,1,3.268.962,7.075,7.075,0,0,1,2.112,2.52,12.254,12.254,0,0,1,1.139,3.539,23.852,23.852,0,0,1,.339,4.029,23.6,23.6,0,0,1-.339,4.015,12.277,12.277,0,0,1-1.139,3.525,6.938,6.938,0,0,1-2.112,2.5,5.446,5.446,0,0,1-3.268.95,5.507,5.507,0,0,1-3.3-.95,6.938,6.938,0,0,1-2.112-2.5,11.916,11.916,0,0,1-1.125-3.525,24.87,24.87,0,0,1-.323-4.015,25.132,25.132,0,0,1,.323-4.029,11.9,11.9,0,0,1,1.125-3.539,7.075,7.075,0,0,1,2.112-2.52A5.448,5.448,0,0,1,69.017,188.728Zm0,1.808a3.271,3.271,0,0,0-2.32.858,6,6,0,0,0-1.455,2.193,11.926,11.926,0,0,0-.745,2.975,25.99,25.99,0,0,0-.207,3.216,25.585,25.585,0,0,0,.207,3.2,11.745,11.745,0,0,0,.745,2.949,5.876,5.876,0,0,0,1.455,2.162,3.3,3.3,0,0,0,2.32.844,3.263,3.263,0,0,0,2.289-.844,5.876,5.876,0,0,0,1.455-2.162,12.268,12.268,0,0,0,.759-2.949,23.574,23.574,0,0,0,.222-3.2,23.945,23.945,0,0,0-.222-3.216,12.456,12.456,0,0,0-.759-2.975,6,6,0,0,0-1.455-2.193A3.232,3.232,0,0,0,69.017,190.536Z"
      transform="translate(-5.275 -188.728)" fill="#fff" />
    <path id="Path_122" data-name="Path 122"
      d="M76.305,188.728a5.387,5.387,0,0,1,3.268.962,7.057,7.057,0,0,1,2.115,2.52,12.253,12.253,0,0,1,1.136,3.539,23.853,23.853,0,0,1,.342,4.029,23.6,23.6,0,0,1-.342,4.015,12.276,12.276,0,0,1-1.136,3.525,6.92,6.92,0,0,1-2.115,2.5,6.143,6.143,0,0,1-6.564,0,6.892,6.892,0,0,1-2.112-2.5,11.916,11.916,0,0,1-1.125-3.525,24.6,24.6,0,0,1-.325-4.015,24.862,24.862,0,0,1,.325-4.029A11.9,11.9,0,0,1,70.9,192.21a7.027,7.027,0,0,1,2.112-2.52A5.436,5.436,0,0,1,76.305,188.728Zm0,1.808a3.266,3.266,0,0,0-2.318.858,5.977,5.977,0,0,0-1.457,2.193,12.03,12.03,0,0,0-.743,2.975,25.541,25.541,0,0,0-.207,3.216,25.145,25.145,0,0,0,.207,3.2,11.847,11.847,0,0,0,.743,2.949,5.852,5.852,0,0,0,1.457,2.162,3.3,3.3,0,0,0,2.318.844,3.259,3.259,0,0,0,2.289-.844,5.91,5.91,0,0,0,1.457-2.162,12.269,12.269,0,0,0,.757-2.949,23.583,23.583,0,0,0,.224-3.2,23.956,23.956,0,0,0-.224-3.216,12.457,12.457,0,0,0-.757-2.975,6.036,6.036,0,0,0-1.457-2.193A3.228,3.228,0,0,0,76.305,190.536Z"
      transform="translate(4.619 -188.728)" fill="#fff" />
    <path id="Path_123" data-name="Path 123" d="M89.43,190.908,80.988,209.93h-2.4l8.681-19.08H76.987v-1.9H89.43Z"
      transform="translate(14.856 -188.421)" fill="#fff" />
    <path id="Path_124" data-name="Path 124" d="M85.077,210.772l-1.719-.566,8.978-21.478,1.688.592Z"
      transform="translate(23.505 -188.728)" fill="#fff" />
    <path id="Path_125" data-name="Path 125"
      d="M101.98,210.236H88.586v-2.221l8.591-8.683c.318-.316.629-.655.934-1.023a8.539,8.539,0,0,0,.816-1.139,5.755,5.755,0,0,0,.563-1.259,4.585,4.585,0,0,0,.207-1.377,4.128,4.128,0,0,0-.325-1.66,3.673,3.673,0,0,0-.905-1.259,4.1,4.1,0,0,0-1.332-.8,4.486,4.486,0,0,0-1.584-.281,4.075,4.075,0,0,0-2.846,1.049,4.791,4.791,0,0,0-1.481,2.683l-2.1-.415a5.978,5.978,0,0,1,.785-2.044,6.26,6.26,0,0,1,1.422-1.631,6.543,6.543,0,0,1,1.91-1.066,6.763,6.763,0,0,1,2.313-.384,7.81,7.81,0,0,1,2.412.368,5.82,5.82,0,0,1,1.995,1.1A5.353,5.353,0,0,1,101.319,192a5.82,5.82,0,0,1,.512,2.5,5.938,5.938,0,0,1-.283,1.867,8.128,8.128,0,0,1-.74,1.629,9.652,9.652,0,0,1-1.08,1.466c-.417.464-.851.922-1.306,1.379l-7.554,7.492H101.98Z"
      transform="translate(30.603 -188.728)" fill="#fff" />
    <path id="Path_126" data-name="Path 126"
      d="M102.821,188.728a5.388,5.388,0,0,1,3.268.962,7.074,7.074,0,0,1,2.112,2.52,12.182,12.182,0,0,1,1.139,3.539,23.85,23.85,0,0,1,.34,4.029,23.6,23.6,0,0,1-.34,4.015,12.2,12.2,0,0,1-1.139,3.525,6.938,6.938,0,0,1-2.112,2.5,6.143,6.143,0,0,1-6.564,0,6.92,6.92,0,0,1-2.115-2.5,11.913,11.913,0,0,1-1.122-3.525,24.605,24.605,0,0,1-.325-4.015,24.865,24.865,0,0,1,.325-4.029,11.9,11.9,0,0,1,1.122-3.539,7.056,7.056,0,0,1,2.115-2.52A5.436,5.436,0,0,1,102.821,188.728Zm0,1.808a3.262,3.262,0,0,0-2.318.858,5.977,5.977,0,0,0-1.457,2.193,12.031,12.031,0,0,0-.743,2.975,25.543,25.543,0,0,0-.207,3.216,25.147,25.147,0,0,0,.207,3.2,11.848,11.848,0,0,0,.743,2.949,5.852,5.852,0,0,0,1.457,2.162,3.565,3.565,0,0,0,4.607,0,5.876,5.876,0,0,0,1.455-2.162,12.269,12.269,0,0,0,.759-2.949,23.575,23.575,0,0,0,.222-3.2,23.946,23.946,0,0,0-.222-3.216,12.457,12.457,0,0,0-.759-2.975,6,6,0,0,0-1.455-2.193A3.232,3.232,0,0,0,102.821,190.536Z"
      transform="translate(40.618 -188.728)" fill="#fff" />
    <path id="Path_127" data-name="Path 127"
      d="M116.555,210.236H103.164v-2.221l8.591-8.683c.316-.316.627-.655.934-1.023a8.738,8.738,0,0,0,.813-1.139,5.756,5.756,0,0,0,.563-1.259,4.585,4.585,0,0,0,.207-1.377,4.088,4.088,0,0,0-.325-1.66,3.611,3.611,0,0,0-.905-1.259,4.1,4.1,0,0,0-1.332-.8,4.486,4.486,0,0,0-1.584-.281,4.075,4.075,0,0,0-2.846,1.049,4.791,4.791,0,0,0-1.481,2.683l-2.1-.415a5.978,5.978,0,0,1,.785-2.044,6.26,6.26,0,0,1,1.422-1.631,6.543,6.543,0,0,1,1.91-1.066,6.763,6.763,0,0,1,2.313-.384,7.825,7.825,0,0,1,2.414.368,5.83,5.83,0,0,1,1.992,1.1A5.324,5.324,0,0,1,115.9,192a5.82,5.82,0,0,1,.512,2.5,5.939,5.939,0,0,1-.283,1.867,8,8,0,0,1-.74,1.629,9.653,9.653,0,0,1-1.08,1.466c-.417.464-.851.922-1.306,1.379l-7.554,7.492h11.111Z"
      transform="translate(50.394 -188.728)" fill="#fff" />
    <path id="Path_128" data-name="Path 128"
      d="M117.4,188.728a5.388,5.388,0,0,1,3.268.962,7.051,7.051,0,0,1,2.112,2.52,12.182,12.182,0,0,1,1.139,3.539,23.85,23.85,0,0,1,.34,4.029,23.6,23.6,0,0,1-.34,4.015,12.2,12.2,0,0,1-1.139,3.525,6.915,6.915,0,0,1-2.112,2.5,6.143,6.143,0,0,1-6.564,0,6.92,6.92,0,0,1-2.115-2.5,11.983,11.983,0,0,1-1.122-3.525,24.605,24.605,0,0,1-.325-4.015,24.865,24.865,0,0,1,.325-4.029,11.964,11.964,0,0,1,1.122-3.539,7.056,7.056,0,0,1,2.115-2.52A5.436,5.436,0,0,1,117.4,188.728Zm0,1.808a3.266,3.266,0,0,0-2.318.858,5.978,5.978,0,0,0-1.457,2.193,12.032,12.032,0,0,0-.743,2.975,25.543,25.543,0,0,0-.207,3.216,25.147,25.147,0,0,0,.207,3.2,11.849,11.849,0,0,0,.743,2.949,5.853,5.853,0,0,0,1.457,2.162,3.3,3.3,0,0,0,2.318.844,3.263,3.263,0,0,0,2.289-.844,5.909,5.909,0,0,0,1.457-2.162,12.381,12.381,0,0,0,.757-2.949,23.586,23.586,0,0,0,.224-3.2,23.958,23.958,0,0,0-.224-3.216,12.572,12.572,0,0,0-.757-2.975,6.036,6.036,0,0,0-1.457-2.193A3.232,3.232,0,0,0,117.4,190.536Z"
      transform="translate(60.407 -188.728)" fill="#fff" />
  </g>
</svg>