<svg xmlns="http://www.w3.org/2000/svg" viewBox="0 0 224.929 79.895">
  <g id="Group_2" data-name="Group 2" transform="translate(-89 -34.21)">
    <g id="Group_1" data-name="Group 1" transform="translate(89 34.21)">
      <path id="Path_1" data-name="Path 1"
        d="M470.063,961.36a12.654,12.654,0,0,1-.1,2.259,30.923,30.923,0,0,0-3.621.124c-11.23,1.465-16.5,8.592-16.5,18.5a18.214,18.214,0,0,0,.1,1.912,17.746,17.746,0,0,0,.7,3.424l.006.013c.557,1.528,2.1,5.155,4.6,6.4,1.652.825,3.146.173,2.494,1.179-.1.148-.458.708-.856,1.329-.311.481-.644,1-.893,1.386l-.392.607a.6.6,0,0,1-1.044.235,35.533,35.533,0,0,1-2.85-2.412c-.962-.967-2.276-2.434-2.674-2.949a27.489,27.489,0,0,1-2.4-3.393,29.968,29.968,0,0,1-1.689-3.255.026.026,0,0,0,0-.012.272.272,0,0,1-.013-.033,20.562,20.562,0,0,1-.85-2.544,20.843,20.843,0,0,1-.687-5.328c0-10.714,4.821-17.966,17.529-20.164l1.339-.141c1.062-.117,2.205-.276,4.17-.642A21.19,21.19,0,0,0,469.76,957a19.707,19.707,0,0,1,.2,2.14c.07.73.107,1.474.107,2.222Z"
        transform="translate(-389.108 -919.352)" fill="#4a8b2c" />
      <path id="Path_2" data-name="Path 2"
        d="M475.212,970.346c-1.011,7.7-4.954,12.59-9.857,15.123-1.049.542-2.677,1.357-3.029,1.6A7.783,7.783,0,0,0,460,989.6a10.549,10.549,0,0,0-1.272,4.14,6.181,6.181,0,0,1-.89-1.775,16.291,16.291,0,0,1-.606-2.678,11.782,11.782,0,0,1-.138-1.54c-.2-9.151,6.366-17.4,17.828-17.4h.005c.1,0,.191,0,.284,0Z"
        transform="translate(-394.494 -924.594)" fill="#76bc21" />
      <path id="Path_3" data-name="Path 3"
        d="M368.766,915.375v-3.46c0-2.869,3.459-4.388,10.463-4.388h16.086q6.328,0,6.328-5.569t-6.328-5.569h-16.17c-16.453,0-24.723,4.894-24.723,14.766v5.485c0,9.028,8.1,13.585,24.216,13.585h17.3c7.256,0,10.885,1.519,10.885,4.725v3.459c0,3.46-4.219,5.232-12.573,5.232H360.5c-4.3,0-6.5,1.772-6.5,5.484,0,3.8,2.194,5.654,6.5,5.654h33.751a64.1,64.1,0,0,0,11.66-.937c.138-10.136,4.422-17.306,15.138-20.322-.358-9.392-9.191-14.179-26.545-14.179H378.386c-6.413,0-9.619-1.35-9.619-3.966Z"
        transform="translate(-354 -895.546)" fill="#fff" />
      <path id="Path_4" data-name="Path 4"
        d="M612.826,895c-4.894,0-7.341,1.941-7.341,5.907v47.5q0,5.823,7.088,5.822c4.81,0,7.172-1.941,7.172-5.822V914.238l42.863,36.7c2.531,2.194,4.219,3.291,7.679,3.291,4.978,0,7.425-1.941,7.425-5.822V900.654c0-3.8-2.363-5.654-7.088-5.654s-7.172,1.857-7.172,5.654v34.089L620.5,898.122c-2.447-2.109-4.3-3.122-7.678-3.122Z"
        transform="translate(-452.784 -895)" fill="#fff" />
      <path id="Path_5" data-name="Path 5"
        d="M628.6,1018.633c0-.665-.393-.982-1.148-.982h-6.087c-1.495,0-2.235-.362-2.235-1.058v-6.434c0-.695-.423-1.042-1.284-1.042q-1.269,0-1.268,1.042v6.526c0,1.978,1.556,2.96,4.622,2.96h6.253c.755,0,1.148-.332,1.148-1.012Zm-13.352.075a1.459,1.459,0,0,0-.362-.876l-5.619-8.051a1.521,1.521,0,0,0-1.314-.664,1.557,1.557,0,0,0-1.344.664l-5.6,8.051a1.459,1.459,0,0,0-.363.876c0,.664.483,1.012,1.36,1.012a1.425,1.425,0,0,0,1.239-.726l1.223-1.842h7.023l1.224,1.842a1.408,1.408,0,0,0,1.193.726c.891,0,1.344-.348,1.344-1.012Zm-5-3.414H605.7l2.266-3.414,2.281,3.414Zm-10.5-2.357v-.951c0-1.873-1.646-2.794-4.909-2.794h-7.115c-.664,0-1.012.272-1.012.8v8.685q0,1.042,1.268,1.043c.861,0,1.284-.348,1.284-1.043v-2.854l7.311,3.625a1.853,1.853,0,0,0,.966.272c.876,0,1.345-.363,1.345-1.058,0-.468-.242-.74-.755-.967l-4.713-2.069h1.42c3.263,0,4.909-.891,4.909-2.689Zm-2.553,0c0,.59-.74.891-2.22.891H589.27v-2.507c0-.091.06-.136.151-.136h5.559c1.48,0,2.22.3,2.22.891v.86Zm-12.914,3.747v-6.526c0-.695-.423-1.042-1.284-1.042-.846,0-1.284.347-1.284,1.042v6.434c0,.7-.74,1.058-2.221,1.058h-3.278c-1.48,0-2.22-.362-2.22-1.058v-6.434q0-1.042-1.269-1.042c-.861,0-1.284.347-1.284,1.042v6.526c0,1.978,1.54,2.96,4.621,2.96h3.6c3.066,0,4.622-.982,4.622-2.96Zm-14.515-6.51c0-.649-.393-.982-1.163-.982h-9.591c-.771,0-1.148.333-1.148,1s.393,1,1.148,1h3.519v7.492c0,.695.438,1.043,1.3,1.043q1.269,0,1.269-1.043v-7.492h3.5c.771,0,1.163-.332,1.163-1.012Zm-10.467,7.658-5.619-8.051a1.521,1.521,0,0,0-1.314-.664,1.557,1.557,0,0,0-1.344.664l-5.6,8.051a1.459,1.459,0,0,0-.362.876c0,.664.483,1.012,1.359,1.012a1.425,1.425,0,0,0,1.239-.726l1.223-1.842H555.9l1.224,1.842a1.408,1.408,0,0,0,1.193.726c.891,0,1.344-.348,1.344-1.012a1.459,1.459,0,0,0-.362-.876Zm-4.637-2.537h-4.547l2.266-3.414,2.281,3.414Zm-11.373,3.383v-8.549c0-.68-.423-1.012-1.269-1.012s-1.284.332-1.284,1.012v6.1l-7.688-6.555a1.857,1.857,0,0,0-1.375-.559c-.876,0-1.314.347-1.314,1.057v8.5q0,1.042,1.269,1.043c.861,0,1.284-.348,1.284-1.043v-6.117l7.673,6.57a1.828,1.828,0,0,0,1.375.59c.891,0,1.329-.348,1.329-1.043Zm-20.829-1.752v-.982c0-1.752-1.586-2.644-4.758-2.644H514.82c-1.148,0-1.722-.242-1.722-.71v-.619c0-.513.619-.785,1.873-.785h3.236q1.133,0,1.133-1t-1.133-1h-3.25c-2.945,0-4.426.876-4.426,2.644v.981c0,1.616,1.45,2.432,4.335,2.432h3.1c1.3,0,1.948.272,1.948.846v.619c0,.619-.755.937-2.251.937h-6.042c-.771,0-1.163.317-1.163.982s.392,1.012,1.163,1.012h6.042q4.8,0,4.8-2.718Zm-13.383,1.782a1.459,1.459,0,0,0-.362-.876l-5.619-8.051a1.52,1.52,0,0,0-1.314-.664,1.557,1.557,0,0,0-1.344.664l-5.6,8.051a1.463,1.463,0,0,0-.362.876c0,.664.483,1.012,1.359,1.012a1.424,1.424,0,0,0,1.239-.726l1.224-1.842h7.023l1.224,1.842a1.408,1.408,0,0,0,1.193.726c.891,0,1.344-.348,1.344-1.012Zm-5-3.414h-4.546l2.265-3.414,2.281,3.414Zm-10.815,1.39v-2.493a1.2,1.2,0,0,0-.051-.293v-.766h-5.8c-.387,0-.58.307-.58.9,0,.615.194.939.58.939h3.3v1.617c0,.7-.755,1.058-2.235,1.058h-3.247c-1.48,0-2.221-.362-2.221-1.058v-4.516c0-.59.68-.891,2.039-.891h3.6c.77,0,1.148-.332,1.148-1.012,0-.649-.378-.982-1.148-.982H485c-3.037,0-4.547.937-4.547,2.809v4.683c0,1.978,1.54,2.96,4.622,2.96h3.565c3.066,0,4.621-.982,4.621-2.96Z"
        transform="translate(-403.673 -939.825)" fill="#4a8b2c" />
      <path id="Path_6" data-name="Path 6"
        d="M547.612,938.936V918.851c-.133,0-32.662.006-32.662.006-4.3,0-6.413,1.856-6.413,5.653,0,3.629,2.109,5.485,6.413,5.485h18.333v.447h.069v7.988c0,3.882-4.219,5.907-12.488,5.907H502.723c-8.269,0-12.4-2.025-12.4-5.907V913.2c0-3.291,3.8-4.978,11.391-4.978h19.942c4.3,0,6.413-1.856,6.413-5.653,0-3.629-2.109-5.485-6.413-5.485H501.458c-16.96,0-25.4,5.232-25.4,15.694v20.033l.623-.073c1.166-.141,2.422-.335,4.581-.78a21.543,21.543,0,0,0,3.674-1.049c.162,1,.216,2.6.216,2.6.077.886.117,1.79.117,2.7,0,1.018-.055,2.058-.118,2.83a8.611,8.611,0,0,1-.1,1.132c-.042.5-.054.514-.182,1.407a28.312,28.312,0,0,1-2.944,9.344c4.293,3.027,10.928,4.55,19.952,4.55h19.913c17.128,0,25.819-5.485,25.819-16.538Z"
        transform="translate(-401.945 -895.819)" fill="#fff" />
    </g>
  </g>
</svg>