<svg id="icon" xmlns="http://www.w3.org/2000/svg" viewBox="0 0 46.82 47.026">
  <path id="Phone"
    d="M32.374,47.026c-7.123,0-15.3-3.923-21.876-10.495C5.226,31.259,1.656,25.023.446,18.971S.505,7.651,4.02,4.137A13.492,13.492,0,0,1,11.788.252L13.53,0l6.407,14.939-6.407,3.2a37.255,37.255,0,0,0,6.685,8.673,38.243,38.243,0,0,0,8.636,6.632l3.01-5.892,14.849,2.119.089,1.894c.216,4.717-1.135,8.674-3.909,11.443A14.463,14.463,0,0,1,32.374,47.026ZM10.767,5.187h0A8.937,8.937,0,0,0,7.259,7.38C4.71,9.926,3.99,14.06,5.23,19.018a31.735,31.735,0,0,0,8.506,14.274c5.607,5.606,12.781,9.089,18.723,9.089a9.894,9.894,0,0,0,7.192-2.612,9.348,9.348,0,0,0,2.542-6.114l-7.712-1.1L33,35.517a4.519,4.519,0,0,1-2.715,2.313,4.569,4.569,0,0,1-1.379.211,4.724,4.724,0,0,1-2.247-.57,42.79,42.79,0,0,1-9.685-7.417,42.024,42.024,0,0,1-7.485-9.73,4.6,4.6,0,0,1,2-6.283l2.534-1.266L10.767,5.187Z"
    transform="translate(0 0)" fill="#c5cbd1" />
</svg>