<svg xmlns="http://www.w3.org/2000/svg" viewBox="0 0 36 37">
  <g id="Calling" transform="translate(0.141 0.464)">
    <rect id="Calling_Frame_Background_" data-name="Calling [Frame Background]" width="36" height="37"
      transform="translate(-0.141 -0.464)" fill="rgba(0,0,0,0)" />
    <g id="Iconly_Light-Outline_Calling" data-name="Iconly/Light-Outline/Calling" transform="translate(3.128 2.432)">
      <g id="Calling-2" data-name="Calling">
        <path id="Combined-Shape"
          d="M7.076,0c1.7.023,2.906,1.294,4.436,2.9.378.4.787.83,1.244,1.285,2.217,2.218,1.586,4.028,1.077,5.48-.553,1.585-1.032,2.952,1.834,5.817s4.231,2.387,5.814,1.829c1.454-.507,3.259-1.143,5.48,1.076.451.451.877.855,1.272,1.231,1.615,1.538,2.891,2.751,2.913,4.453.016,1.449-.865,2.929-3.04,5.1l-.963-.653.816.795a5.656,5.656,0,0,1-4.271,1.825h-.046c-3.786,0-8.722-3.014-14.672-8.962C3,16.212-.023,11.26,0,7.467A5.659,5.659,0,0,1,1.822,3.194l.042-.046.1-.1C4.146.865,5.644-.031,7.076,0ZM7.047,2.28H7.035c-.682,0-1.718.684-3.163,2.087l-.29.285h0s-.025.028-.067.072l-.1.1A3.419,3.419,0,0,0,2.279,7.479c-.012,2.174,1.418,6.211,8.3,13.093,6.851,6.849,10.881,8.3,13.061,8.3h.032a3.425,3.425,0,0,0,2.653-1.136,3.22,3.22,0,0,1,.258-.245c1.515-1.524,2.29-2.656,2.282-3.383s-.931-1.617-2.206-2.83c-.406-.384-.846-.805-1.311-1.27-1.206-1.2-1.8-1-3.115-.535-1.816.637-4.3,1.509-8.178-2.37s-3.008-6.363-2.375-8.18c.459-1.313.668-1.91-.536-3.116-.471-.471-.895-.918-1.285-1.328C8.654,3.207,7.784,2.29,7.047,2.28ZM20.125,5.406a7.829,7.829,0,0,1,6.219,6.217,1.139,1.139,0,0,1-.9,1.337,1.215,1.215,0,0,1-.22.021,1.138,1.138,0,0,1-1.117-.921,5.561,5.561,0,0,0-4.417-4.418,1.139,1.139,0,0,1,.435-2.236Zm-.091-5.4A13.174,13.174,0,0,1,31.736,11.7a1.139,1.139,0,0,1-1,1.26,1.227,1.227,0,0,1-.129.008,1.138,1.138,0,0,1-1.13-1.012,10.911,10.911,0,0,0-9.69-9.68,1.139,1.139,0,0,1-1.006-1.258A1.128,1.128,0,0,1,20.034.009Z"
          transform="translate(0 0)" fill="#848484" fill-rule="evenodd" />
      </g>
    </g>
  </g>
</svg>