<svg xmlns="http://www.w3.org/2000/svg" viewBox="0 0 75.241 98.944">
  <g id="Group_20" data-name="Group 20" transform="translate(0)">
    <path id="Path_38" data-name="Path 38"
      d="M2375.5-738.331l-23.293-36.513a37.2,37.2,0,0,1,1.6-42.33l.835-1.113a37.2,37.2,0,0,1,60.075.753h0a37.2,37.2,0,0,1,.56,42.328l-24.916,37.055A8.884,8.884,0,0,1,2375.5-738.331Z"
      transform="translate(-2346.373 833.168)" fill="#4a8b2c" />
    <path id="Path_39" data-name="Path 39"
      d="M2515.2-693.5a14.186,14.186,0,0,1-.117,2.526,34.611,34.611,0,0,0-4.05.139c-12.558,1.638-18.457,9.609-18.457,20.692a20.377,20.377,0,0,0,.113,2.138,19.877,19.877,0,0,0,.788,3.829.11.11,0,0,1,.007.015c.623,1.708,2.353,5.765,5.14,7.158,1.847.923,3.519.193,2.789,1.318-.108.165-.512.792-.957,1.486-.347.538-.72,1.116-1,1.55l-.438.679a.673.673,0,0,1-1.167.263,39.726,39.726,0,0,1-3.187-2.7c-1.076-1.081-2.545-2.722-2.99-3.3a30.738,30.738,0,0,1-2.687-3.794,33.556,33.556,0,0,1-1.889-3.639.027.027,0,0,0,0-.013.292.292,0,0,1-.015-.037,23.026,23.026,0,0,1-.951-2.845,23.3,23.3,0,0,1-.769-5.958c0-11.981,5.391-20.091,19.6-22.549l1.5-.158c1.187-.13,2.466-.308,4.662-.718a23.7,23.7,0,0,0,3.74-.965,22.058,22.058,0,0,1,.219,2.393c.078.816.12,1.648.12,2.485Z"
      transform="translate(-2460.599 722.388)" fill="#fff" />
    <path id="Path_40" data-name="Path 40"
      d="M2557.882-647.508c-1.131,8.611-5.539,14.079-11.023,16.911-1.173.606-2.994,1.518-3.387,1.795a8.7,8.7,0,0,0-2.6,2.823,11.8,11.8,0,0,0-1.423,4.63,6.9,6.9,0,0,1-.995-1.985,18.2,18.2,0,0,1-.678-2.995,13.129,13.129,0,0,1-.155-1.723c-.22-10.232,7.118-19.461,19.936-19.461h.006c.108,0,.214,0,.318,0Z"
      transform="translate(-2503.547 680.586)" fill="#fff" />
  </g>
</svg>